<svg id="telegram" xmlns="http://www.w3.org/2000/svg" width="27.999" height="27.798" viewBox="0 0 27.999 27.798">
  <path id="Path_43" data-name="Path 43" class="cls-1" d="M21.069,12.1l-7.856,6.949a.37.37,0,0,0-.1.3l-.3,2.719c0,.1-.1.1-.2,0L11.4,18.045a.368.368,0,0,1,.2-.5L20.767,11.8C21.069,11.7,21.271,12,21.069,12.1Z" transform="translate(-2.034 -2.131)"/>
  <path id="Path_44" data-name="Path 44" class="cls-1" d="M16.1,2.2a13.927,13.927,0,0,0-14,13.9,13.608,13.608,0,0,0,4.129,9.87A14,14,0,0,0,30.1,16.1,14.079,14.079,0,0,0,16.1,2.2Zm8.259,7.957-2.82,13.7a.892.892,0,0,1-1.41.5L15.8,21.135l-2.216,2.216a.731.731,0,0,1-1.209-.3l-1.611-5.036L6.532,16.7a.565.565,0,0,1,0-1.108l16.82-6.547A.9.9,0,0,1,24.358,10.157Z" transform="translate(-2.1 -2.2)"/>
</svg>
