<svg xmlns="http://www.w3.org/2000/svg" width="28" height="27.999" viewBox="0 0 28 27.999">
  <path id="iconfinder_64-viber_1181201" class="cls-1" d="M17.616,4.484a14,14,0,1,0,14,14A14,14,0,0,0,17.616,4.484Zm-.655,7.4c.114-.1.194-.119.589-.107.206.007.509.031.674.051a6.757,6.757,0,0,1,2.248.667A6.117,6.117,0,0,1,22.282,13.8a5.889,5.889,0,0,1,1.237,1.7,8.136,8.136,0,0,1,.788,3.325c.017.424,0,.519-.092.64a.449.449,0,0,1-.728-.068,1.18,1.18,0,0,1-.07-.5,8.8,8.8,0,0,0-.133-1.261,5.806,5.806,0,0,0-2.251-3.744,5.9,5.9,0,0,0-3.41-1.205c-.461-.027-.541-.044-.645-.124A.475.475,0,0,1,16.961,11.88ZM19.852,15a4.618,4.618,0,0,0-1.865-.56.617.617,0,0,1-.458-.172.442.442,0,0,1-.036-.548c.126-.2.32-.228.9-.141a4.689,4.689,0,0,1,3.359,2.01,4.823,4.823,0,0,1,.771,2.149,4.01,4.01,0,0,1,0,.9.552.552,0,0,1-.221.24.542.542,0,0,1-.407-.014c-.187-.095-.243-.245-.243-.652a3.887,3.887,0,0,0-.444-1.8A3.686,3.686,0,0,0,19.852,15Zm.82,3.233a.469.469,0,0,1-.568.012c-.116-.087-.153-.179-.179-.429a2.3,2.3,0,0,0-.189-.781,1.374,1.374,0,0,0-1.225-.774c-.3-.036-.388-.07-.485-.184a.452.452,0,0,1,.136-.679c.092-.046.131-.051.335-.039a3.234,3.234,0,0,1,.412.051,2.316,2.316,0,0,1,1.157.577,2.4,2.4,0,0,1,.72,1.5C20.851,17.926,20.824,18.1,20.671,18.236Zm3.623,6.371a5.375,5.375,0,0,1-1.365,1.7,1.935,1.935,0,0,1-1.166.483,1.7,1.7,0,0,1-.914-.192,19.245,19.245,0,0,1-8.282-6.378,18.073,18.073,0,0,1-2.573-4.681c-.342-.943-.359-1.353-.078-1.836a5.408,5.408,0,0,1,1.014-.989,3.508,3.508,0,0,1,1.145-.686,1.317,1.317,0,0,1,.606.056,1.626,1.626,0,0,1,.291.145A11.768,11.768,0,0,1,15.135,15a1.546,1.546,0,0,1,.245,1.072c-.078.276-.206.422-.781.885a4.3,4.3,0,0,0-.48.429,1.131,1.131,0,0,0-.158.548,4.076,4.076,0,0,0,.609,1.7,7.3,7.3,0,0,0,1.217,1.433,6.715,6.715,0,0,0,1.6,1.13c.711.354,1.145.444,1.462.3a1.176,1.176,0,0,0,.192-.107c.024-.022.211-.25.415-.5.393-.495.483-.575.752-.667a1.3,1.3,0,0,1,1.043.095c.267.138.849.5,1.225.762a18.084,18.084,0,0,1,1.7,1.382A1.1,1.1,0,0,1,24.295,24.607Z" transform="translate(-3.616 -4.484)"/>
</svg>
