<svg id="icons" xmlns="http://www.w3.org/2000/svg" width="28" height="28" viewBox="0 0 28 28">
  <g id="whatsapp">
    <path id="Path_47" data-name="Path 47" class="cls-1" d="M20.7,11.7a5.856,5.856,0,0,0-8.3-.2,5.636,5.636,0,0,0-.7,7.2l-.1.3-.5,1h0l-.8,1.6,1.7-.7h0l1.1-.4.3-.1a5.722,5.722,0,0,0,7.3-8.7Zm-.9,6c0,.1-.1.1-.1.2-.1.1-.2.3-.4.4-.1.1-.3.1-.4.2h-.1a4.9,4.9,0,0,1-2.8-.9,4.43,4.43,0,0,1-1.7-2.1,9.83,9.83,0,0,1-.5-1.6v-.6a.6.6,0,0,1,.1-.4c.1-.1.3-.2.4-.4a.785.785,0,0,1,1.1,0c.1.1.2.3.3.4.1.3.1.5.2.8a.844.844,0,0,1-.2.7l-.2.2v.1a2.811,2.811,0,0,0,2.1,2.1h.1l.2-.2a.778.778,0,0,1,.8-.2c.2.1.5.1.7.2A.9.9,0,0,1,19.8,17.7Z" transform="translate(-2 -2)"/>
    <path id="Path_48" data-name="Path 48" class="cls-1" d="M16,2A14,14,0,1,0,30,16,14.041,14.041,0,0,0,16,2Zm5.7,18.3a6.885,6.885,0,0,1-8.6,1.4L9,23.3a.333.333,0,0,1-.4-.5L10.5,19a6.928,6.928,0,1,1,11.2,1.3Z" transform="translate(-2 -2)"/>
  </g>
</svg>
