<svg id="icons" xmlns="http://www.w3.org/2000/svg" width="28" height="28" viewBox="0 0 28 28">
  <g id="you_x5F_tube">
    <path id="Path_49" data-name="Path 49" class="cls-1" d="M18,16.5l-3.6,1.7c-.3.2-.7-.1-.7-.5V14.2c0-.4.4-.6.8-.5l3.6,1.8C18.4,15.8,18.4,16.4,18,16.5Z" transform="translate(-2 -2)"/>
    <path id="Path_50" data-name="Path 50" class="cls-1" d="M16,2A14,14,0,1,0,30,16,14.041,14.041,0,0,0,16,2Zm8.6,16.2a3.842,3.842,0,0,1-3.9,3.9H11.3a3.9,3.9,0,0,1-3.9-3.9V13.9A3.842,3.842,0,0,1,11.3,10h9.4a3.9,3.9,0,0,1,3.9,3.9Z" transform="translate(-2 -2)"/>
  </g>
</svg>
