<svg xmlns="http://www.w3.org/2000/svg" width="55.665" height="71.378" viewBox="0 0 55.665 71.378">
  
  <g id="Group_158" data-name="Group 158" transform="translate(-475 -3076.412)">
    <g id="meditation-yoga-retreat" transform="translate(451.027 3068.412)">
      <g id="Asana" transform="translate(-84.209 -32.7)">
        <g id="Skin" transform="translate(122.804 89.729)">
          <g id="Group_103" data-name="Group 103" transform="translate(0 0)">
            <g id="Group_102" data-name="Group 102">
              <path id="Path_93" data-name="Path 93" class="cls-1" d="M459.737,1223.651a.211.211,0,0,1-.158-.067.223.223,0,0,1,0-.313c.6-.634,1.138-1.2,1.621-1.7a.233.233,0,0,1,.042-.246c2.73-2.876,2.851-2.876,2.963-2.88a.182.182,0,0,1,.063.008c.988-.955,1.071-.955,1.146-.938a.247.247,0,0,1,.167.067.224.224,0,0,1,0,.317.227.227,0,0,1-.121.063,15.239,15.239,0,0,0-1.25,1.171,53,53,0,0,1-4.318,4.451A.194.194,0,0,1,459.737,1223.651Z" transform="translate(-459.491 -1217.491)"/>
              <path id="Path_94" data-name="Path 94" class="cls-1" d="M459.245,1223.186a.244.244,0,0,1-.179-.413c.634-.667,1.159-1.221,1.613-1.692a.246.246,0,0,1,.05-.254c2.718-2.859,2.851-2.884,2.976-2.884a.156.156,0,0,1,.058,0c1-.963,1.075-.954,1.155-.938a.253.253,0,0,1,.179.075.244.244,0,0,1-.125.413,14.883,14.883,0,0,0-1.246,1.167,53.765,53.765,0,0,1-4.318,4.451A.211.211,0,0,1,459.245,1223.186Zm4.477-5.206h-.008c-.1,0-.225,0-2.951,2.872a.2.2,0,0,0-.038.225l0,.012-.008.008c-.454.475-.984,1.029-1.621,1.7a.2.2,0,0,0,.15.342.206.206,0,0,0,.142-.058,54.356,54.356,0,0,0,4.314-4.452,13.963,13.963,0,0,1,1.259-1.176l.008,0a.213.213,0,0,0,.108-.058.2.2,0,0,0,0-.287.233.233,0,0,0-.154-.063h0c-.071-.017-.2.042-1.13.934l-.008.008-.012,0Z" transform="translate(-458.999 -1217.005)"/>
            </g>
          </g>
        </g>
        <g id="Your_Icon" transform="translate(108.182 40.7)">
          <g id="Group_104" data-name="Group 104" transform="translate(0 0)">
            <path id="Path_95" data-name="Path 95" class="cls-1" d="M163.718,108.093c-.271-.054-.609-.117-.975-.179a15.852,15.852,0,0,1-2.605-.592c-3.122-1.33-3.326-3.935-3.585-7.24l-.017-.183c-.075-.95-.108-1.934-.142-2.88a40.724,40.724,0,0,0-.333-4.656c-.313-2.1-.921-3.355-3.259-3.968-.9-.233-1.813-.538-2.693-.829a26.131,26.131,0,0,0-4.9-1.271,4.735,4.735,0,0,1-1.53-.375,24.1,24.1,0,0,0,1.259-4.96l.025-.121c.888-4.514,1.213-10.283-2.267-12.117a6.893,6.893,0,0,1-2.855-2.688c-.175-.25-.325-.446-.446-.613a2.535,2.535,0,0,1-.646-1.751c-.621-5.623-3.064-10.466-5.418-15.151a4.674,4.674,0,0,1-.221-2.722,10.439,10.439,0,0,0,.058-2.426,3.078,3.078,0,0,0-.921-1.3c-.108-.063-.225-.142-.346-.221a3.06,3.06,0,0,0-1.475-.654.874.874,0,0,0-.575.2,1.175,1.175,0,0,0-1.146.417c-.333.492-.075,1.159.154,1.746.067.175.133.342.171.479a2.392,2.392,0,0,1-.142,1.28,2.958,2.958,0,0,0-.175,1.384,4.376,4.376,0,0,0,1.334,2.392,6.234,6.234,0,0,1,1.1,2.072l.108.283a22.111,22.111,0,0,1,.809,2.834,16.885,16.885,0,0,0,1.2,3.739,9.153,9.153,0,0,1,.763,3.139c0,.038.008.071.013.1-.021-.029-.046-.067-.071-.1a.926.926,0,0,0-.784-.534l-.142.013a1.15,1.15,0,0,0-.6.421,3.239,3.239,0,0,1-2.138,1.13c-2.247.258-2.568,2.042-2.876,3.768a5.277,5.277,0,0,0,1.946,5.023,3.369,3.369,0,0,0,.429.329,1.5,1.5,0,0,0-.054.388,1.85,1.85,0,0,0,1.971,1.7,1.881,1.881,0,0,0,1.946-1.5,2.809,2.809,0,0,1,.654.192,1.468,1.468,0,0,1,.646.717,2.393,2.393,0,0,0,.113.217,12.468,12.468,0,0,1,.629,2.563,12.062,12.062,0,0,0,.371,1.709c.675,1.955.609,4.46-1.059,5.66-.525.379-1,.667-1.471.946a5.723,5.723,0,0,0-3.209,3.78c-.5,1.767-1.963,3.318-3.38,4.81-.521.554-1.017,1.075-1.463,1.613a7.994,7.994,0,0,1-3.068,2.638c-2.451,1.08-4.993,2.313-6.786,4.41a20.258,20.258,0,0,0-1.663,2.367,23.24,23.24,0,0,1-1.317,1.934,11.96,11.96,0,0,1-1.146,1.188c-.992.95-2.117,2.03-2.276,3.359a1.714,1.714,0,0,0,.367,1.363c.713.838,2.234.909,3.347.959.225.013.433.021.613.033l.283.029a17.561,17.561,0,0,0,1.913.129c1.188,0,1.888-.208,2.209-.654a1.01,1.01,0,0,0,.1-.967c-.3-.867-1.225-1.03-2.038-1.167-.538-.092-1.088-.188-1.284-.471a.944.944,0,0,1-.063-.692c.258-1.3,1.7-2.134,2.972-2.863.467-.267.9-.517,1.284-.788a13.68,13.68,0,0,0,1.676-1.492,8.71,8.71,0,0,1,2.447-1.921,18.9,18.9,0,0,1,1.876-.65,14.7,14.7,0,0,0,2.593-.979,31.322,31.322,0,0,0,6.64-5.023l.367-.346c1.221-1.146,2.4-2.2,3.9-1.892l.654.138a40.064,40.064,0,0,0,9.416,1.213c2.342-.058,2.4.246,2.5,1.684a12.7,12.7,0,0,0,.188,1.63,23.675,23.675,0,0,0,1.28,4.01,18.914,18.914,0,0,1,1.371,4.768,7.248,7.248,0,0,1,0,1c-.046,1-.1,2.234.684,2.909a2.314,2.314,0,0,0,1.559.467,10.486,10.486,0,0,0,1.784-.213c.354-.063.688-.121.942-.138a17.43,17.43,0,0,1,2.6.088,21.266,21.266,0,0,0,2.409.1c.746-.017,1.017-.458,1.025-.867A1.4,1.4,0,0,0,163.718,108.093ZM143.086,85.677l-.129-.054a.261.261,0,0,1,.142-.038Zm1.059-4.864c-.721,3.739-1.1,4.61-1.213,4.8a21.449,21.449,0,0,1-4.593-2.538,10.4,10.4,0,0,0-1.53-1.192,6.936,6.936,0,0,0,.042-4.7c.75.013,2.451.067,4.577.313a7.057,7.057,0,0,0,3.218-.171,32.415,32.415,0,0,1-.479,3.355Zm-6.827,11c-.033,0-.063.013-.1.017l.046-.029Zm-3.359-34.141a16.162,16.162,0,0,1-1.134-3.564,22.263,22.263,0,0,0-.838-2.943l-.108-.279a6.964,6.964,0,0,0-1.255-2.33,3.6,3.6,0,0,1-1.134-1.988,2.305,2.305,0,0,1,.154-1.017,3.117,3.117,0,0,0,.15-1.709,5.026,5.026,0,0,0-.2-.571c-.108-.279-.333-.859-.238-1a.956.956,0,0,1,.6-.054l.242.025.138-.2a.081.081,0,0,1,.083-.046,2.765,2.765,0,0,1,1.025.521c.133.088.258.171.363.233a3.972,3.972,0,0,1,.55.717,9.692,9.692,0,0,1-.054,2.2,5.431,5.431,0,0,0,.3,3.2c2.326,4.622,4.731,9.4,5.339,14.88a3.257,3.257,0,0,0,.8,2.147c.117.158.258.346.429.588a8.931,8.931,0,0,0,1.9,2.155c.042.483.088,1.213.088,1.926a3.7,3.7,0,0,1-2.013,3.155,6.721,6.721,0,0,1-2.851.771,8.743,8.743,0,0,0-.55-1.876h0v0c-.033-.075-.067-.146-.1-.217a6.5,6.5,0,0,1-.458-1.938,34.69,34.69,0,0,1-.029-3.972c.017-.571.029-1.088.029-1.5a22.966,22.966,0,0,0-.225-2.718h0l0-.029c-.021-.167-.042-.308-.058-.425-.033-.258-.067-.513-.1-.759m-1.8.567c.071-.071.154-.163.146-.183a1.348,1.348,0,0,1,.121.167,1.371,1.371,0,0,0,.875.659,22.8,22.8,0,0,1,.238,2.734c0,.4-.012.909-.029,1.471-.008.258-.012.529-.021.8a3.466,3.466,0,0,1-1.288-.179c-.709-.279-.817-.171-.817-.8a1.1,1.1,0,0,1,.429-1.034c.279-.258.8-.646-.042-.709s-1.421-.258-1.592-.579a10.3,10.3,0,0,1-.4-1.017A4.159,4.159,0,0,0,133,61.636Zm-5.869,37.542a13.547,13.547,0,0,1-2.455.925,19.239,19.239,0,0,0-1.959.679,9.345,9.345,0,0,0-2.7,2.088,13.359,13.359,0,0,1-1.576,1.409c-.346.246-.771.488-1.217.746-1.421.817-3.03,1.738-3.359,3.409a1.671,1.671,0,0,0,.188,1.3,2.587,2.587,0,0,0,1.809.809c.767.133,1.275.25,1.413.642.058.158.017.213.008.233-.038.05-.288.313-1.551.313a17.759,17.759,0,0,1-1.83-.121l-.3-.029c-.188-.017-.4-.025-.642-.038-.909-.042-2.284-.1-2.772-.675a.926.926,0,0,1-.179-.746c.125-1.046,1.092-1.976,2.034-2.872a12.722,12.722,0,0,0,1.221-1.275,23.556,23.556,0,0,0,1.363-2,19.932,19.932,0,0,1,1.6-2.276c1.68-1.967,4.131-3.151,6.5-4.193a8.768,8.768,0,0,0,3.372-2.876c.421-.5.9-1.017,1.417-1.563.25-.267.508-.542.767-.821a17.121,17.121,0,0,0,3.005,1.571,10.53,10.53,0,0,1,1.855.879A29.042,29.042,0,0,1,127.135,99.178Zm36.641,10.3a19.666,19.666,0,0,1-2.322-.1,17.845,17.845,0,0,0-2.718-.088c-.3.021-.654.083-1.03.15a10.2,10.2,0,0,1-1.646.2,1.567,1.567,0,0,1-1.034-.271c-.488-.417-.446-1.4-.4-2.263a7.669,7.669,0,0,0,0-1.117,19.53,19.53,0,0,0-1.425-4.973,23.017,23.017,0,0,1-1.238-3.872,11.8,11.8,0,0,1-.175-1.53c-.113-1.676-.279-2.518-3.318-2.438a27.147,27.147,0,0,1-4.693-.333,8.154,8.154,0,0,0,1.959-2.188,14.974,14.974,0,0,0,1.367-3.164c.934.242,1.859.538,2.763.838s1.817.6,2.743.842c1.759.458,2.355,1.2,2.663,3.305a40.762,40.762,0,0,1,.325,4.564c.033.959.067,1.951.146,2.918l.013.183c.258,3.289.5,6.4,4.072,7.915a15.749,15.749,0,0,0,2.784.646c.358.063.692.121,1.009.183a.565.565,0,0,1,.321.279.391.391,0,0,1,.079.263S163.964,109.481,163.776,109.481Z" transform="translate(-109.174 -41.179)"/>
            <path id="Path_96" data-name="Path 96" class="cls-1" d="M114.748,112.078a17.9,17.9,0,0,1-1.917-.129l-.283-.029c-.138-.013-.3-.021-.467-.029l-.146-.008c-1.117-.05-2.643-.117-3.364-.963a1.719,1.719,0,0,1-.371-1.38c.158-1.342,1.288-2.422,2.284-3.376a12.062,12.062,0,0,0,1.142-1.188c.479-.613.9-1.284,1.317-1.934a19.523,19.523,0,0,1,1.667-2.372c1.8-2.1,4.339-3.334,6.79-4.414a7.967,7.967,0,0,0,3.055-2.63c.458-.55.971-1.092,1.467-1.617,1.413-1.492,2.872-3.034,3.372-4.8a5.742,5.742,0,0,1,3.214-3.793l.021-.013c.463-.275.938-.563,1.45-.934,1.659-1.192,1.721-3.689,1.05-5.635a12.042,12.042,0,0,1-.371-1.692l0-.025a12.624,12.624,0,0,0-.625-2.559,1.974,1.974,0,0,1-.113-.217,1.448,1.448,0,0,0-.638-.7,2.761,2.761,0,0,0-.625-.188,1.914,1.914,0,0,1-1.963,1.5,1.875,1.875,0,0,1-1.992-1.721,1.434,1.434,0,0,1,.054-.379,3.425,3.425,0,0,1-.417-.321,5.305,5.305,0,0,1-1.951-5.043c.308-1.734.629-3.526,2.893-3.785a3.222,3.222,0,0,0,2.126-1.121,1.155,1.155,0,0,1,.613-.425l.142-.013a.936.936,0,0,1,.8.542c.008.008.013.021.021.029a.038.038,0,0,0,0-.021,9.1,9.1,0,0,0-.759-3.13,16.988,16.988,0,0,1-1.2-3.743l0-.008a21.264,21.264,0,0,0-.8-2.822l-.113-.292a6.232,6.232,0,0,0-1.088-2.059,4.417,4.417,0,0,1-1.338-2.4,2.986,2.986,0,0,1,.175-1.392l0-.008a2.337,2.337,0,0,0,.142-1.263c-.033-.125-.092-.271-.15-.429l-.017-.046c-.229-.592-.492-1.263-.15-1.763a1.2,1.2,0,0,1,1.159-.425.9.9,0,0,1,.584-.2,3.048,3.048,0,0,1,1.484.654l.025.017c.113.075.221.146.321.208a3.112,3.112,0,0,1,.929,1.313,10.514,10.514,0,0,1-.058,2.434,4.635,4.635,0,0,0,.221,2.709l0,.008c2.359,4.685,4.793,9.528,5.418,15.151a2.523,2.523,0,0,0,.642,1.742l.012.017c.125.167.263.354.438.6a6.863,6.863,0,0,0,2.851,2.68c3.493,1.838,3.168,7.615,2.28,12.137l-.021.121a25.485,25.485,0,0,1-1.25,4.947,4.859,4.859,0,0,0,1.5.367,26.049,26.049,0,0,1,4.9,1.271l.05.017c.867.288,1.759.579,2.643.813,2.347.613,2.964,1.871,3.276,3.985a41.141,41.141,0,0,1,.333,4.66l0,.067c.033.925.063,1.884.138,2.813l.017.183c.258,3.3.463,5.9,3.572,7.219a15.767,15.767,0,0,0,2.593.592h.008c.413.071.734.133.975.179a1.4,1.4,0,0,1,1.117,1.355c-.008.417-.288.867-1.046.888a21.022,21.022,0,0,1-2.413-.1l-.038,0a16.892,16.892,0,0,0-2.555-.083c-.246.017-.571.075-.938.138a10.5,10.5,0,0,1-1.788.213,2.328,2.328,0,0,1-1.571-.471c-.792-.684-.738-1.926-.692-2.926a6.578,6.578,0,0,0,0-.992,18.96,18.96,0,0,0-1.359-4.731l-.012-.029a23.69,23.69,0,0,1-1.28-4.01,12.18,12.18,0,0,1-.188-1.634c-.1-1.4-.117-1.726-2.476-1.667a40.083,40.083,0,0,1-9.42-1.213l-.654-.138c-1.534-.317-2.78.854-3.88,1.888l-.367.346a31.259,31.259,0,0,1-6.644,5.027,14.626,14.626,0,0,1-2.584.979l-.058.017a17.638,17.638,0,0,0-1.83.634A8.813,8.813,0,0,0,119.616,103l-.025.025a14.294,14.294,0,0,1-1.651,1.467c-.383.271-.821.521-1.288.788l-.008,0c-1.263.725-2.7,1.551-2.951,2.843a.9.9,0,0,0,.058.675c.188.275.738.371,1.267.458.817.142,1.742.3,2.055,1.184a1.03,1.03,0,0,1-.1.984C116.648,111.87,115.94,112.078,114.748,112.078Zm17.885-40.672.021,0a2.727,2.727,0,0,1,.659.2,1.478,1.478,0,0,1,.659.725c.067.142.1.208.108.217a12.475,12.475,0,0,1,.629,2.572l0,.025a12.575,12.575,0,0,0,.367,1.684c.675,1.959.609,4.476-1.067,5.681-.517.371-.992.659-1.455.938l-.021.013a5.7,5.7,0,0,0-3.2,3.768c-.5,1.776-1.967,3.326-3.384,4.822-.5.525-1.009,1.067-1.463,1.613a7.994,7.994,0,0,1-3.076,2.643c-2.447,1.08-4.985,2.309-6.777,4.4a20.215,20.215,0,0,0-1.663,2.363c-.413.65-.838,1.321-1.317,1.938a12.177,12.177,0,0,1-1.146,1.192c-.992.946-2.113,2.022-2.272,3.347a1.694,1.694,0,0,0,.363,1.346c.709.834,2.226.9,3.334.95l.146.008c.167.008.329.017.467.029l.283.029a16.73,16.73,0,0,0,1.913.129c1.18,0,1.876-.2,2.192-.646a.994.994,0,0,0,.092-.946c-.3-.854-1.213-1.017-2.017-1.155-.542-.092-1.1-.188-1.3-.479a.948.948,0,0,1-.063-.709c.258-1.313,1.7-2.142,2.972-2.872l.008,0c.463-.267.9-.517,1.284-.788a14.217,14.217,0,0,0,1.646-1.463l.025-.025a8.776,8.776,0,0,1,2.455-1.926,17.707,17.707,0,0,1,1.834-.634l.058-.017a14.564,14.564,0,0,0,2.58-.975,31.386,31.386,0,0,0,6.636-5.018l.367-.342c1.1-1.042,2.359-2.217,3.914-1.9l.654.138A40.069,40.069,0,0,0,147.5,93.5c2.326-.058,2.417.221,2.518,1.7a13.669,13.669,0,0,0,.188,1.63,24.137,24.137,0,0,0,1.275,4.006l.013.029a18.886,18.886,0,0,1,1.363,4.743,6.692,6.692,0,0,1,0,1c-.046.992-.1,2.226.679,2.893a2.3,2.3,0,0,0,1.542.463,10.451,10.451,0,0,0,1.784-.213c.371-.067.7-.121.942-.142a16.983,16.983,0,0,1,2.563.083l.037,0a20.913,20.913,0,0,0,2.409.1c.729-.017,1-.446,1-.846a1.372,1.372,0,0,0-1.08-1.309h0c-.242-.05-.563-.108-.975-.179h-.008a15.893,15.893,0,0,1-2.6-.592c-3.13-1.334-3.334-3.943-3.6-7.252l-.017-.188c-.075-.929-.108-1.888-.138-2.813l0-.067a41,41,0,0,0-.333-4.652c-.308-2.092-.917-3.343-3.243-3.947-.888-.233-1.78-.525-2.647-.813l-.046-.017a25.846,25.846,0,0,0-4.9-1.267,4.845,4.845,0,0,1-1.538-.379l-.017-.008.008-.017a24.7,24.7,0,0,0,1.259-4.956l.025-.121c.871-4.531,1.2-10.291-2.272-12.117a6.925,6.925,0,0,1-2.863-2.693c-.171-.242-.313-.429-.433-.6l-.013-.017a2.554,2.554,0,0,1-.65-1.763c-.621-5.614-3.059-10.453-5.414-15.134l0-.008a4.714,4.714,0,0,1-.225-2.734,10.388,10.388,0,0,0,.054-2.422,3.059,3.059,0,0,0-.913-1.28c-.1-.058-.208-.133-.325-.208l-.025-.017a3.046,3.046,0,0,0-1.463-.65.838.838,0,0,0-.563.2l-.008,0h-.008a1.183,1.183,0,0,0-1.13.408c-.329.483-.071,1.142.154,1.726l.017.046a3.385,3.385,0,0,1,.15.433,2.422,2.422,0,0,1-.142,1.288v0a2.937,2.937,0,0,0-.175,1.375,4.376,4.376,0,0,0,1.33,2.384,6.158,6.158,0,0,1,1.1,2.072l.113.292a21.5,21.5,0,0,1,.8,2.826l0,.008a16.907,16.907,0,0,0,1.192,3.735,9.082,9.082,0,0,1,.763,3.143c0,.033.008.067.013.1l.012.1-.05-.071c-.021-.029-.046-.067-.071-.1a.9.9,0,0,0-.763-.521l-.138.012a1.1,1.1,0,0,0-.584.413,3.277,3.277,0,0,1-2.155,1.134c-2.23.254-2.551,2.034-2.855,3.751A5.273,5.273,0,0,0,128.36,70.5a3.166,3.166,0,0,0,.425.325l.012.008,0,.013a1.44,1.44,0,0,0-.054.383,1.833,1.833,0,0,0,1.951,1.68,1.861,1.861,0,0,0,1.926-1.484Zm-17.885,39.867c-.667,0-1.38-.075-1.8-.117l-.329-.033c-.171-.013-.367-.025-.579-.033l-.071,0c-.913-.042-2.288-.1-2.78-.684a.946.946,0,0,1-.188-.759c.125-1.055,1.1-1.984,2.038-2.884l.033-.029a13,13,0,0,0,1.188-1.242,23.264,23.264,0,0,0,1.355-1.988l.008-.008a19.466,19.466,0,0,1,1.6-2.28c1.688-1.976,4.139-3.155,6.5-4.2a8.794,8.794,0,0,0,3.364-2.868c.413-.5.884-1,1.384-1.526l.038-.038c.283-.3.534-.567.767-.821l.013-.013.017.008a17.213,17.213,0,0,0,3,1.567,10.1,10.1,0,0,1,1.859.884l.025.013-.021.017a29.065,29.065,0,0,1-6.015,4.485h0a13.589,13.589,0,0,1-2.455.925l-.013,0a19.679,19.679,0,0,0-1.946.675,9.258,9.258,0,0,0-2.688,2.084,13.4,13.4,0,0,1-1.576,1.409c-.342.242-.754.479-1.2.734l-.025.017c-1.417.813-3.022,1.738-3.351,3.393a1.651,1.651,0,0,0,.183,1.288,2.542,2.542,0,0,0,1.784.8h.012c.771.133,1.288.254,1.43.654.058.171.017.229,0,.25C116.273,111,116.015,111.274,114.748,111.274ZM127.3,91.8c-.229.25-.475.513-.754.809l-.038.038c-.5.529-.971,1.03-1.38,1.521a8.809,8.809,0,0,1-3.38,2.88c-2.363,1.042-4.81,2.222-6.49,4.189a19.88,19.88,0,0,0-1.6,2.272l-.008.008c-.421.663-.859,1.35-1.359,1.992a13.091,13.091,0,0,1-1.192,1.246l-.033.029c-.938.9-1.9,1.821-2.026,2.859a.906.906,0,0,0,.175.729c.479.563,1.846.625,2.751.667l.071,0c.213.008.408.021.579.033l.329.033a17.344,17.344,0,0,0,1.8.117c1.246,0,1.5-.254,1.534-.3.012-.017.042-.063-.008-.213-.133-.383-.642-.5-1.4-.629h-.012a2.582,2.582,0,0,1-1.813-.813,1.7,1.7,0,0,1-.192-1.321c.329-1.676,1.942-2.6,3.368-3.418l.029-.017c.438-.25.85-.488,1.192-.729a13.321,13.321,0,0,0,1.571-1.4,9.338,9.338,0,0,1,2.7-2.092,20.122,20.122,0,0,1,1.951-.675l.012,0a13.848,13.848,0,0,0,2.451-.921h0a29.031,29.031,0,0,0,5.985-4.46,10.623,10.623,0,0,0-1.83-.863A17.649,17.649,0,0,1,127.3,91.8Zm27.772,17.389a1.6,1.6,0,0,1-1.046-.275c-.5-.425-.45-1.409-.413-2.28v-.042a7.637,7.637,0,0,0,0-1.071,19.533,19.533,0,0,0-1.417-4.952l-.008-.021a23.361,23.361,0,0,1-1.238-3.868,10.935,10.935,0,0,1-.175-1.534c-.113-1.688-.3-2.5-3.3-2.417a27.13,27.13,0,0,1-4.7-.333l-.05-.008.038-.029a7.934,7.934,0,0,0,1.951-2.184,14.526,14.526,0,0,0,1.363-3.159l0-.021.021,0c.884.229,1.742.5,2.763.838l.05.017c.875.288,1.784.588,2.693.825,1.767.458,2.367,1.2,2.68,3.322a40.54,40.54,0,0,1,.325,4.568l0,.163c.033.9.067,1.842.138,2.755l.012.183c.258,3.284.5,6.385,4.06,7.9a15.452,15.452,0,0,0,2.78.642l.075.013c.329.058.638.113.934.171a.58.58,0,0,1,.333.288.44.44,0,0,1,.083.283h0c-.017.025-.092.063-.258.063a19.59,19.59,0,0,1-2.322-.1,18.156,18.156,0,0,0-2.718-.088,10.138,10.138,0,0,0-1.009.146l-.054.008A9.588,9.588,0,0,1,155.069,109.185ZM147.863,92.68c2.659,0,2.838.821,2.951,2.463a11.876,11.876,0,0,0,.175,1.53,23.425,23.425,0,0,0,1.234,3.864l.008.021a19.755,19.755,0,0,1,1.421,4.964,7.757,7.757,0,0,1,0,1.08v.042c-.038.859-.083,1.834.4,2.247a1.541,1.541,0,0,0,1.017.267,9.744,9.744,0,0,0,1.609-.2l.054-.008a10.032,10.032,0,0,1,1.013-.146,18.213,18.213,0,0,1,2.722.088,17.934,17.934,0,0,0,2.317.1h0a.41.41,0,0,0,.221-.042.425.425,0,0,0-.079-.242.551.551,0,0,0-.3-.271c-.3-.058-.609-.113-.938-.171l-.075-.013a15.527,15.527,0,0,1-2.788-.646c-3.58-1.526-3.826-4.639-4.085-7.932l-.013-.183c-.075-.913-.108-1.851-.138-2.755l0-.163a40.471,40.471,0,0,0-.325-4.564c-.308-2.1-.9-2.834-2.651-3.289-.913-.238-1.817-.538-2.7-.825l-.05-.017c-1.013-.333-1.863-.6-2.743-.834a14.658,14.658,0,0,1-1.363,3.151,8.111,8.111,0,0,1-1.921,2.167,26.833,26.833,0,0,0,4.643.325C147.608,92.68,147.738,92.68,147.863,92.68Zm-11.721-1.292.133-.088.146.042-.088.017c-.013,0-.025,0-.038.008a.282.282,0,0,1-.058.008Zm5.964-6.16-.042-.017c-.033-.012-.067-.029-.108-.046l0,0h0l-.033-.013h0a21.334,21.334,0,0,1-4.581-2.534,10.76,10.76,0,0,0-1.526-1.188l-.017-.008.008-.017a6.836,6.836,0,0,0,.042-4.681l-.008-.029h.029c.813.013,2.488.071,4.581.313a7.028,7.028,0,0,0,3.209-.171l.029-.013,0,.033a33.064,33.064,0,0,1-.479,3.359l-.025.125a22.754,22.754,0,0,1-1.2,4.777.344.344,0,0,1,.129-.029h.025Zm-.092-.083c.021.008.042.017.058.025l.008-.038A.189.189,0,0,0,142.015,85.144Zm-6.169-3.751a11.082,11.082,0,0,1,1.517,1.184,21.112,21.112,0,0,0,4.568,2.526,21.784,21.784,0,0,0,1.2-4.777h0l.025-.125a32.174,32.174,0,0,0,.475-3.322,7.168,7.168,0,0,1-3.2.158c-2.063-.242-3.726-.3-4.547-.313A6.849,6.849,0,0,1,135.846,81.393Zm-.559-7.344,0-.017a8.581,8.581,0,0,0-.546-1.863h0l-.017-.033a2.051,2.051,0,0,0-.092-.192A6.624,6.624,0,0,1,134.167,70a34.686,34.686,0,0,1-.029-3.972c.017-.579.029-1.092.029-1.5a22.683,22.683,0,0,0-.225-2.713l0-.029c-.021-.167-.042-.308-.058-.425-.025-.175-.046-.35-.067-.521-.008-.079-.021-.163-.029-.242l.042,0c.008.079.021.158.029.242.021.171.042.342.067.517.017.117.038.263.058.425l0,.029a22.754,22.754,0,0,1,.225,2.718c0,.4-.012.917-.029,1.5a34.619,34.619,0,0,0,.029,3.968,6.546,6.546,0,0,0,.458,1.934c.033.063.063.129.092.2l.012.025a8.511,8.511,0,0,1,.55,1.859,6.63,6.63,0,0,0,2.822-.767,3.68,3.68,0,0,0,2-3.139c0-.717-.046-1.434-.088-1.913a9.009,9.009,0,0,1-1.9-2.155c-.154-.221-.283-.392-.4-.542l-.033-.042a3.273,3.273,0,0,1-.809-2.159c-.6-5.477-3.009-10.253-5.335-14.872a5.436,5.436,0,0,1-.3-3.214,9.624,9.624,0,0,0,.054-2.2,3.888,3.888,0,0,0-.542-.7c-.079-.046-.175-.108-.275-.175l-.088-.058a2.849,2.849,0,0,0-1.017-.517c-.033,0-.042,0-.067.038l-.146.208-.254-.029a1,1,0,0,0-.579.046c-.088.129.142.721.242.975a5.109,5.109,0,0,1,.2.579,3.067,3.067,0,0,1-.15,1.717,2.279,2.279,0,0,0-.154,1.009,3.6,3.6,0,0,0,1.125,1.976A6.882,6.882,0,0,1,130.9,50.4l.108.283a21.592,21.592,0,0,1,.838,2.938l0,.013a16.306,16.306,0,0,0,1.13,3.555l-.038.017a16.16,16.16,0,0,1-1.134-3.564l0-.012a22.1,22.1,0,0,0-.838-2.93l-.108-.279a6.911,6.911,0,0,0-1.25-2.322,3.625,3.625,0,0,1-1.138-2,2.34,2.34,0,0,1,.154-1.025,3.088,3.088,0,0,0,.15-1.7,5.026,5.026,0,0,0-.2-.571c-.175-.454-.325-.888-.238-1.017.025-.033.221-.113.617-.063l.229.025.129-.188a.1.1,0,0,1,.1-.054,2.8,2.8,0,0,1,1.038.521l.088.058c.1.067.2.129.275.175a3.8,3.8,0,0,1,.559.725v0a9.764,9.764,0,0,1-.054,2.213,5.425,5.425,0,0,0,.3,3.189c2.326,4.622,4.735,9.4,5.339,14.884a3.271,3.271,0,0,0,.8,2.138l.033.042c.113.154.242.325.4.546a8.728,8.728,0,0,0,1.9,2.151l.008,0v.008c.042.479.088,1.2.088,1.93a3.72,3.72,0,0,1-2.026,3.176,6.664,6.664,0,0,1-2.859.771ZM133.2,66.825a3.3,3.3,0,0,1-1.159-.183c-.133-.054-.25-.092-.342-.125-.408-.142-.492-.171-.492-.692a1.126,1.126,0,0,1,.438-1.05c.025-.021.05-.046.075-.071.163-.146.367-.329.325-.45-.029-.083-.175-.133-.433-.154-.884-.067-1.438-.271-1.609-.592a9.462,9.462,0,0,1-.4-1.021l-.008-.025.025,0a4.063,4.063,0,0,0,2.38-1.321l.008-.008a.85.85,0,0,0,.133-.158l-.029-.079.067.063a1.15,1.15,0,0,1,.113.154l.008.017a1.319,1.319,0,0,0,.863.646l.012,0v.012a23.47,23.47,0,0,1,.238,2.738c0,.408-.017.925-.029,1.471-.008.258-.013.529-.021.8v.021h-.021C133.291,66.825,133.245,66.825,133.2,66.825ZM129.648,62.5a9.65,9.65,0,0,0,.4.992c.163.308.709.5,1.576.571.283.021.438.083.471.183.05.146-.158.329-.338.492-.025.025-.054.046-.075.071a1.081,1.081,0,0,0-.425,1.017c0,.492.063.513.463.654.092.033.208.071.342.125a3.359,3.359,0,0,0,1.259.179c.008-.271.012-.534.021-.784.017-.546.029-1.063.029-1.471a23.393,23.393,0,0,0-.233-2.718,1.378,1.378,0,0,1-.875-.663l-.008-.017c-.025-.038-.058-.092-.083-.121a1.213,1.213,0,0,1-.129.15l-.008.008A4.138,4.138,0,0,1,129.648,62.5Z" transform="translate(-108.182 -40.7)"/>
          </g>
        </g>
        <g id="Top" transform="translate(126.163 61.667)">
          <g id="Group_105" data-name="Group 105" transform="translate(8.224 5.467)">
            <path id="Path_97" data-name="Path 97" class="cls-1" d="M737.5,682.936a6.557,6.557,0,0,0,2.338-.363,5.088,5.088,0,0,0,2.626-1.613,3.177,3.177,0,0,0,.7-2.263c0-1.255.121-2.7.121-2.7s.6.479.963.7a6.876,6.876,0,0,1,1.759,1.255,7.123,7.123,0,0,1,1.325,2.676,18.573,18.573,0,0,1,.338,3.83c-.046,1.038-.05.942-.05.942a4.929,4.929,0,0,1-2.651.554c-1.855,0-3.105-.267-4.143-.288s-2.772-.05-2.772-.05Z" transform="translate(-737.475 -675.954)"/>
            <path id="Path_98" data-name="Path 98" class="cls-1" d="M744.394,684.912a24.481,24.481,0,0,1-2.78-.179c-.513-.054-.95-.1-1.363-.113-1.025-.025-2.751-.05-2.772-.05h-.017l-.563-2.718h.029a6.612,6.612,0,0,0,2.33-.358,4.953,4.953,0,0,0,2.613-1.6l.054-.083a3.075,3.075,0,0,0,.642-2.167c0-1.238.117-2.684.121-2.7l0-.038.029.025a11.325,11.325,0,0,0,.963.7c.058.038.133.079.221.129a5.9,5.9,0,0,1,1.542,1.13,7.142,7.142,0,0,1,1.33,2.684,18.446,18.446,0,0,1,.338,3.835q-.025.563-.037.8c0,.075-.008.117-.008.138h0c0,.021-.008.025-.017.025A5.222,5.222,0,0,1,744.394,684.912Zm-6.9-.379c.179,0,1.784.025,2.755.05.413.008.854.058,1.367.112a24.393,24.393,0,0,0,2.776.179,5.055,5.055,0,0,0,2.63-.546c0-.037.013-.208.046-.93a18.4,18.4,0,0,0-.338-3.826,7.1,7.1,0,0,0-1.321-2.663,5.909,5.909,0,0,0-1.53-1.121c-.088-.05-.163-.092-.225-.129a11.143,11.143,0,0,1-.934-.675c-.021.238-.117,1.534-.117,2.659a3.15,3.15,0,0,1-.646,2.192l-.054.083a5.006,5.006,0,0,1-2.634,1.621,6.639,6.639,0,0,1-2.317.363Z" transform="translate(-736.9 -674.9)"/>
          </g>
          <g id="Group_106" data-name="Group 106" transform="translate(0.438 19.288)">
            <path id="Path_99" data-name="Path 99" class="cls-1" d="M559.307,1007.1a9.853,9.853,0,0,1,2.021,1.3,18.058,18.058,0,0,0,2.989,1.9,29.331,29.331,0,0,0,2.747,1.255c.433.121,2.843.529,3.205.675s.217.746-.217,1.88a13.314,13.314,0,0,1-1.784,3.3c-.529.579-1.951,1.8-1.951,1.8s-1.567-.217-2.384-.413a10.6,10.6,0,0,0-2.913-.5,4.423,4.423,0,0,0-2.217,1.038c-.625.625-1.542,1.4-1.542,1.4s-2.5-1.059-3.447-1.517a24.534,24.534,0,0,1-2.192-1.23,3.878,3.878,0,0,1-.721-.7,16.434,16.434,0,0,0,1.567-1.855,8.443,8.443,0,0,0,1.155-2.359,4.616,4.616,0,0,1,.846-1.759,5.38,5.38,0,0,1,1.663-1.446,13.708,13.708,0,0,0,2.167-1.371A3.345,3.345,0,0,0,559.307,1007.1Z" transform="translate(-550.867 -1007.075)"/>
            <path id="Path_100" data-name="Path 100" class="cls-1" d="M556.5,1020.184l-.013,0c-.025-.012-2.518-1.067-3.447-1.517a24.946,24.946,0,0,1-2.2-1.229,4.006,4.006,0,0,1-.729-.7l-.013-.012.013-.012a17.017,17.017,0,0,0,1.563-1.851,8.545,8.545,0,0,0,1.155-2.355,4.739,4.739,0,0,1,.846-1.767,5.526,5.526,0,0,1,1.667-1.45c.175-.1.338-.192.5-.279a10.457,10.457,0,0,0,1.667-1.092,3.32,3.32,0,0,0,1-1.388l.008-.021.021.008a9.845,9.845,0,0,1,2.03,1.3,17.542,17.542,0,0,0,2.984,1.9,28.666,28.666,0,0,0,2.743,1.25c.175.05.7.15,1.246.254.817.158,1.742.333,1.959.421.383.154.233.763-.2,1.9a13.3,13.3,0,0,1-1.788,3.305c-.525.571-1.938,1.8-1.955,1.809l-.008,0h-.008c-.017,0-1.576-.221-2.388-.413-.146-.033-.317-.079-.5-.121a7.9,7.9,0,0,0-2.409-.384,4.418,4.418,0,0,0-2.2,1.03c-.621.621-1.534,1.392-1.542,1.4Zm-6.336-3.468a3.965,3.965,0,0,0,.7.679,23.649,23.649,0,0,0,2.188,1.225c.9.438,3.243,1.434,3.434,1.513.1-.083.946-.8,1.53-1.388a4.45,4.45,0,0,1,2.226-1.042,7.7,7.7,0,0,1,2.43.383c.179.046.35.088.5.121.775.183,2.242.392,2.372.409.108-.1,1.438-1.25,1.942-1.8a13.343,13.343,0,0,0,1.78-3.293c.417-1.092.579-1.713.229-1.851-.213-.083-1.138-.263-1.951-.417-.575-.108-1.071-.2-1.25-.254a28.9,28.9,0,0,1-2.751-1.255,17.8,17.8,0,0,1-2.993-1.9,9.885,9.885,0,0,0-2-1.288,3.39,3.39,0,0,1-1.009,1.384,10.447,10.447,0,0,1-1.676,1.1c-.158.087-.321.179-.5.279a5.394,5.394,0,0,0-1.655,1.442,4.626,4.626,0,0,0-.842,1.751,8.517,8.517,0,0,1-1.159,2.368A18.209,18.209,0,0,1,550.162,1016.716Z" transform="translate(-550.1 -1006.5)"/>
          </g>
          <g id="Group_107" data-name="Group 107">
            <path id="Path_101" data-name="Path 101" class="cls-1" d="M547.149,549.48a19.09,19.09,0,0,0,.025,3.735,6.609,6.609,0,0,1,.242,1.471.99.99,0,0,0-.458-.288c-.363-.142-.433-.1-.433-.1s-.117,1.938-2.676,1.35a1.58,1.58,0,0,1-1.35-1.976,5.686,5.686,0,0,1-1.684-1.855,4.626,4.626,0,0,1-.65-3.926c.383-1.855.867-2.555,1.471-2.989a1.944,1.944,0,0,1,1.471-.4c.167.083.333.759.55,1.238a1.425,1.425,0,0,0,1.18.963c.642.058,1.155.192,1.155.383s-.767.517-.867,1.155c-.071.458-.071.675.171.867a2.568,2.568,0,0,0,1.084.313Z" transform="translate(-539.979 -544.446)"/>
            <path id="Path_102" data-name="Path 102" class="cls-1" d="M544.34,555.064a4.017,4.017,0,0,1-.9-.113,1.781,1.781,0,0,1-1.2-.775,1.717,1.717,0,0,1-.167-1.213,5.744,5.744,0,0,1-1.68-1.855,4.666,4.666,0,0,1-.654-3.943c.417-2,.955-2.622,1.48-3a1.94,1.94,0,0,1,1.492-.4c.112.058.221.35.342.692.067.188.138.383.217.554a1.385,1.385,0,0,0,1.163.95c.354.033,1.175.142,1.175.4,0,.079-.1.171-.25.292a1.538,1.538,0,0,0-.617.867c-.071.442-.075.659.162.846a2.574,2.574,0,0,0,1.071.308l.792.05v.021a19.041,19.041,0,0,0,.025,3.726,6.844,6.844,0,0,1,.242,1.476v.071l-.038-.058a1.048,1.048,0,0,0-.446-.283.913.913,0,0,0-.4-.1,1.652,1.652,0,0,1-.625,1.121A1.871,1.871,0,0,1,544.34,555.064Zm-1.855-11.287a2.268,2.268,0,0,0-1.242.425c-.517.371-1.05.988-1.463,2.976a4.584,4.584,0,0,0,.65,3.914,5.637,5.637,0,0,0,1.68,1.846l.013.008,0,.017a1.546,1.546,0,0,0,1.334,1.946,2.427,2.427,0,0,0,2.038-.225,1.629,1.629,0,0,0,.609-1.1v-.008l.008,0c.013-.008.1-.046.454.1a1.232,1.232,0,0,1,.425.25,7.421,7.421,0,0,0-.238-1.409,18.483,18.483,0,0,1-.025-3.718l-.75-.05a2.63,2.63,0,0,1-1.1-.317c-.254-.2-.246-.438-.175-.888a1.574,1.574,0,0,1,.629-.892c.125-.108.238-.2.238-.263,0-.158-.438-.3-1.138-.363a1.439,1.439,0,0,1-1.2-.975c-.079-.175-.15-.371-.217-.558-.117-.321-.225-.621-.325-.671A.473.473,0,0,0,542.485,543.776Z" transform="translate(-539.579 -543.732)"/>
          </g>
        </g>
      </g>
    </g>
  </g>
</svg>
