<?xml version="1.0" encoding="utf-8"?>
<!-- Generator: Adobe Illustrator 24.0.1, SVG Export Plug-In . SVG Version: 6.00 Build 0)  -->
<svg version="1.1" id="Layer_1" xmlns="http://www.w3.org/2000/svg" xmlns:xlink="http://www.w3.org/1999/xlink" x="0px" y="0px"
	 viewBox="0 0 1805.8 1800" style="enable-background:new 0 0 1805.8 1800;" xml:space="preserve">
<g>
	<path d="M1758.3,1022.2c-11.2,10.7-23,21-33.6,32.4c-21.5,23.2-33.4,51.8-43.6,81.1c-5.4,15.4-10.7,30.8-16.9,45.9
		c-21.1,50.7-57,88.5-104.9,113.9c-37.2,19.7-75.9,36.4-114,54.4c-24.5,11.6-49.4,22.3-68.5,42.6c-7.7,8.2-13.7,17.2-14.8,28.6
		c-1.9,19.6,7.2,33.4,24,42.2c22.9,12.1,47.1,12.8,71.7,6.6c34.6-8.7,62.7-28.6,88-52.8c39-37.4,69-81.4,92.2-129.9
		c20.6-43.3,40.5-86.9,60.1-130.7c22-49.2,57.7-86.3,101.3-116.7c1.9-1.3,4-2.3,6.7-2.6c-1.2,1.4-2.3,2.9-3.7,4
		c-29.4,23.5-48.3,54.5-59.4,89.6c-15.5,48.9-29,98.4-42.6,147.8c-11,39.8-24.7,78.3-42.3,115.7c-33.8,71.9-88.8,121.7-160.1,154.7
		c-44.7,20.7-91.6,34.2-140.6,39.2c-52.2,5.3-104,2.6-155.5-7.6c-39.4-7.8-78.9-15.5-119.3-13.8c-13.2,0.6-26.6,3.4-39.1,7.4
		c-7.1,2.3-13.9,8.2-18.9,14.1c-9.7,11.3-9.5,25.1,0.8,35.8c7.3,7.6,16.1,14.2,25.4,19.2c17,9.2,35.2,16.7,54.7,16.7
		c16.6,0.1,33.5-2.5,49.8-5.9c28.5-5.9,56.6-14.5,85.2-19.7c28.9-5.3,58.3-7.9,87.5-11.5c6.7-0.8,13.5-1.1,20.6-0.3
		c-15.6,3.9-31.4,7.4-46.8,11.9c-49.5,14.4-98.7,29.8-148.4,43.5c-21.2,5.9-43.2,10.3-65,12.1c-26.4,2.3-52.2-4.1-75.4-16.6
		c-26.5-14.4-52.3-30.3-77.4-46.9c-23.3-15.4-47.1-29.4-73.5-38.8c-13.6-4.9-27.5-8.3-42.2-5.7c-17.7,3.1-24.8,14.1-20.1,31.6
		c3.7,13.8,11.5,25.2,20.8,35.7c30.9,34.4,70.3,55,113.7,68.6c32.3,10.1,65.4,11.7,99,10.5c58.5-2,115.6-12,170.8-31.4
		c23.4-8.2,45.4-20.1,68.7-28.6c47.5-17.3,96.4-28.9,147.4-29.6c4.8-0.1,9.6-1.5,14.4-2c2.4-0.3,4.9,0,7.3,0c0,0.6,0.1,1.2,0.1,1.8
		c-9.1,1.6-18.2,3.2-27.3,4.9c-61.1,11.2-117.7,33.7-170,67.3c-43.6,28-89.3,51.6-139.1,67c-37.1,11.4-74.8,19.9-113.7,21.1
		c-52.5,1.7-100.8-13.3-146.5-38.4c-28.5-15.6-53.7-35.1-77-57.6c-42.8-41.4-86.1-82.1-128.7-123.6c-25-24.3-48.7-49.9-73.7-74
		c-10.6-10.2-23.1-18.7-35.3-27.1c-5.7-3.9-12.6-6.4-19.3-8.3c-23.6-6.5-39.3,7-37.8,31.4c1.1,17.7,8.4,32.9,17.5,47.4
		c15.8,25.2,38.3,43.3,63.8,58c9.1,5.2,18.3,10.1,27.5,15.3c3.5,2,6.8,4.2,9.4,7.8c-12.6-5.5-25.2-11-37.9-16.5
		c-33.2-14.5-63.7-32.8-87-61.4c-21.7-26.6-34.2-57.7-43.1-90.3c-3.9-14.3-6.8-28.9-10.3-43.3c-8.3-34.6-25.5-64.2-50.9-88.7
		c-6-5.8-14.3-10.7-22.3-12.8c-12.8-3.4-22.9,6.6-25.7,22.5c-2.7,15.4,0.7,30.1,5.3,44.5c12.8,40.6,34.1,76.8,57.6,112
		c29.2,43.7,62.5,83.7,103.3,116.9c33.5,27.3,72.1,46.4,111.8,62.9c40,16.7,80.7,31.4,121.1,47c45.8,17.8,86.9,43.8,125.9,73.3
		c1.3,1,2.6,2.2,3.1,4.3c-2.2-1.5-4.3-3.1-6.5-4.6c-43.9-30.5-90.2-56.3-143.1-67.2c-27.8-5.7-56.1-9.6-84.1-14
		c-67.3-10.5-132-29.4-191.9-62.5c-63-34.8-103.8-87.4-123.2-156.4c-13.6-48.4-22.9-97.5-22.4-148.1c0.2-17.4-2.5-34.9-4.3-52.3
		c-0.4-4-1.8-8.6-4.4-11.4c-3.4-3.6-8.5-7.7-12.8-7.6c-3.9,0.1-9.1,4.7-11.1,8.7c-5.9,11.6-4.1,24.3-2.4,36.6
		c1.3,9.6,3.5,19.1,4.8,28.8c-12.5-28.5-26.2-56.5-31.1-87.7c-3.8-24.2-0.2-47.6,7.8-70.4c13.2-37.5,18.8-76.1,16.7-115.6
		c-0.9-17.5-4.5-35.2-8.8-52.3c-3-12-10.2-13-19.2-4.2c-13.5,13.2-17.5,30.5-17.7,48.1c-0.3,39,0.8,78,1.3,116.9
		c0.1,6.7,0,13.4-0.9,20.2c-1.3-11-2.5-22.1-4.1-33.1c-3.6-26.2-7.7-52.4-11-78.7c-6.2-49.3-9.8-98.6,6.7-146.7
		c4.9-14.2,11.2-28,17.1-41.9c10.4-24.6,16.2-50.1,14.8-76.8c-0.4-8.5-3.6-17-5.9-25.4c-1.3-4.8-5.2-5.4-8.4-2.2
		c-6.1,6.2-13.2,12.2-16.9,19.8c-10.6,22.1-20.6,44.6-29.1,67.6c-13.8,37.2-23.9,75.6-29.2,115c-4.6,33.9-5.1,68-1.1,102
		c8.8,74.9,33,145.9,56.9,216.9c20.8,61.8,42,123.4,62.9,185.2c2.1,6.2,3.5,12.6,4.4,19.1c-4-11.6-7.8-23.2-11.9-34.7
		c-17.6-49.7-41.7-96-71.5-139.4c-36.1-52.7-69.5-107.1-97.3-164.7c-16.6-34.4-29.2-70.1-33.9-108.2
		c-10.5-83.6,6.8-160.8,54.9-230.4c31.4-45.4,67-87.4,107-125.6c25.4-24.3,49.5-49.8,69.3-79.1c9.2-13.6,17.1-27.7,19.6-44.3
		c3.2-21-11.2-34.3-31.7-28.7c-22.7,6.2-41,19.7-52.3,39.8c-14.9,26.5-27.8,54.1-40.4,81.7c-10.2,22.3-18.6,45.5-28.1,68.1
		c4.6-17.1,10-34,13.7-51.2c6-28.3,11.4-56.7,16-85.2c6-37.4,25.9-65.4,55.3-88c26.2-20.1,56.2-33,85.5-47.3
		c22.1-10.8,44.5-21,66.5-32c16.7-8.4,31.6-19.4,43.1-34.4c3.7-4.8,7-10.1,9.2-15.6c4.9-12.1-1.3-20.8-14.3-21.4
		c-13.8-0.6-26.4,4-38.6,9.6c-34,15.7-65.3,35.8-95.8,57.3c-36.2,25.5-70.3,53.5-101.6,84.7c-31.2,31-54.1,68-69.3,109.1
		c-12.1,32.8-23,66.2-31.9,100c-13.4,50.8-37,96.6-64.9,143c0.4-2.5,0.4-3.2,0.7-3.9C30.1,821.8,45.5,755.4,57.7,688
		c8-44.2,18.5-87.9,28.4-131.8c11.6-51.1,43-87.5,86.6-114.5c60-37.2,123.2-66.6,192.1-83.4c18.4-4.5,36.4-10.8,54.5-16.4
		c7.9-2.4,14.9-6,18.2-14.8c-5.7-7.8-14.2-8.5-22.7-8.9c-19.3-1-37.9,2.5-55.7,9.5c-12.5,4.9-24.6,10.6-36.8,16
		c-2.3,1-4.6,2.1-7,3.1c-0.4-0.8-0.8-1.6-1.2-2.4c20.9-11.3,41.8-22.7,62.8-33.9c37.7-20.1,78.8-27.5,120.7-31.1
		c22.1-1.9,44.2-2.4,66.4-3c35.7-0.9,70.9-5.5,104.6-17.7c9.9-3.6,19.6-8.8,28.3-14.8c8.1-5.5,13.3-13.8,10.5-24.5
		c-3-11.2-11.5-15.4-22.1-17.1c-29.2-4.7-56.6,2.6-83.4,12.8c-23.6,9.1-46.7,19.6-70.3,28.8c-11,4.3-22.6,7-34,10.5
		c-0.2-0.6-0.5-1.2-0.7-1.8c6.6-3.2,13.3-6.2,19.7-9.7c18.2-9.9,36.5-19.5,54.3-30c38.8-23.1,80.3-38.1,125.2-43.3
		c47.8-5.6,92.8,4.6,136.6,22.9c21.3,8.9,42.9,17.2,64.8,24.4c16.1,5.3,33,5.9,49.8,2.4c14.5-3,24.1-11.1,23.5-22.1
		c-0.4-7.6-3.4-15.7-7.3-22.4c-7-12.1-18.6-19.8-30.6-26.5c-25.7-14.5-53.7-22.7-82-30c-32.6-8.5-65.7-11.9-99.2-9
		c-35.4,3.1-69.2,13-102.4,25.2c-44.7,16.4-86.7,38.4-123.3,68.7c-52,43.1-111,72.8-173.7,96.1c-22.7,8.4-45.7,16.2-68.6,24.2
		c-0.3-0.7-0.5-1.4-0.8-2c9-4.1,17.8-8.8,27.1-12.3c72.8-27.7,129.6-76.8,181.8-133c29-31.2,59.4-61.4,91.4-89.5
		c37.1-32.6,82.5-49.3,130.9-57.1c18.9-3.1,38.2-4.1,57.4-4.7c31-0.9,60.1,7.5,88.2,20.1c35.5,15.8,67.1,37.9,97.7,61.3
		c28.1,21.4,54.9,44.6,81.6,67.7c25.2,21.9,49,45.5,74.6,66.8c15.8,13.2,33.7,24,51.3,34.8c6.2,3.8,14,5.9,21.4,6.6
		c13.6,1.4,20.3-8.2,13-19.4c-6.3-9.6-14.4-18.4-23.4-25.6c-10.4-8.3-21.9-15.8-33.9-21.3c-32-14.7-54.8-38.3-71.1-70.7
		c3,3.7,5.3,6.3,7.4,9c16.4,20.8,37.1,35.6,61.8,45.2c17,6.6,34.1,13.1,50.7,20.6c24.6,11,45.5,27,62.7,48
		c16.1,19.7,30,40.5,41.5,63.4c16.2,32.2,41.3,56.6,74.4,71.7c7.3,3.3,15.9,5.1,23.9,5.4c22.1,0.9,38.3-15.6,39.9-37.8
		c4.1-55.2-17.6-98.2-62.7-128.7c-24.5-16.6-50.9-30.6-77.4-43.9c-41.4-20.8-84.2-37.7-129.5-48.5c-39.7-9.5-78.7-21.8-117.8-33.6
		c-64.1-19.3-119.5-55.4-174.5-92.1c-8.3-5.5-16-11.9-24-18c-2.1-1.6-3.9-3.6-5-6.7c4.5,3.2,9.1,6.3,13.6,9.5
		c31.6,23.1,64.8,43.5,101.1,58.1c31.7,12.8,65.2,19.3,99,24.1c42.6,6.1,85.3,11.8,127.9,17.2c30.2,3.9,60.4,6.8,90.6,10.8
		c31.3,4.1,62.9,6.9,92.9,17.9c61.1,22.4,100.7,65.6,123.3,125.6c13.6,36.1,21,73.8,27.8,111.6c6.8,38.3,8.2,76.9,7.8,115.7
		c-0.3,35.4-1.3,70.8,0.2,106.1c1.7,41,10.8,80.5,32.4,116.2c4.7,7.8,11.1,12.5,20.4,13.5c8.6,0.9,14.3-1.4,15.6-10.1
		c1.3-8.7,2-18.4-0.7-26.4c-5.3-16.1-12.3-31.7-20-46.8c-10.1-19.8-20.6-39.6-21.8-62.2c-1.1-21.1-0.5-42.4-0.2-63.6
		c0.1-6.4,1.5-12.9,3.7-19.3c0.2,3,0.4,6.1,0.5,9.1c0.7,56.5,14.8,108.7,48.9,154.7c16.1,21.7,28.8,45.3,33.3,72.4
		c7,42.1-1.2,81.4-24.3,117.3c-11.9,18.5-23.9,37-30.2,58.1c-2.9,9.6-4.5,20.2-3.7,30.1c1.8,19.7,22.4,32.1,41.1,24.8
		c9.7-3.8,19.4-9.7,27-16.9c32.6-30.6,51.2-68.4,57-113c7.7-59.9-5.8-116-30.6-169.4c-40.1-86.7-76.1-175-109.1-264.5
		c-14.7-39.9-23.3-81.3-30.1-123.1c-3.5-21.3-5.6-42.8-8.3-64.2c0.6-0.1,1.2-0.2,1.8-0.3c3.3,15.4,6.9,30.7,9.7,46.1
		c8.7,46.6,19.1,92.6,44.7,133.4c16.6,26.4,33.4,52.7,51.2,78.3c25.2,35.9,52.5,70.4,76.9,106.8c24.6,36.8,50,73.3,66.2,115.1
		c14.7,37.9,25.2,76.8,27.1,117.5c2.5,52.3-13.4,99.2-42.3,142.4c-29.2,43.6-65.8,80.2-106.4,113c-37,29.8-74.2,59.4-111.3,89.1
		c-17.7,14.1-30.6,31.3-34.9,54c-4.2,22.2,7.1,42.5,26.5,46.2c12.6,2.4,24.7-0.6,36.2-6c31.6-14.9,53.7-38.7,68-70.5
		c10.9-24.4,21.7-49,35-72.2C1695.7,1070.3,1726.4,1045.4,1758.3,1022.2z M1357.8,715.6c2.9-2.5,5.6-5.3,8.8-7.5
		c9.4-6.3,13.7-15.3,15.4-26.2c3.3-20.7,1.2-40.8-5.3-60.5c-10.6-31.8-21.9-63.5-32-95.5c-4.9-15.7-9-31.9-5.4-48.8
		c0.5-2.5,0.9-5,1.5-8c-3.7,0.4-6.5,0.7-9.4,1c-26.1,2.8-50.7-3.8-75-12.4c-24.5-8.7-48.7-18.4-73.6-26c-12.8-3.9-26.7-5.4-40.2-6
		c-20.2-0.8-36.2,8.1-47.9,25.2c7.2-24.7-4-42.5-21.3-57.3c-9.4-8-19.6-15.5-30.4-21.3c-18.9-10.1-38.3-19.2-57.9-27.9
		c-28.1-12.5-54.5-27.2-74.5-51.4c-3.7-4.5-6.2-2.1-8.6,1.1c-12,16-28.1,27.1-45.5,36c-21,10.7-43.2,19.3-64,30.4
		c-18.2,9.7-35.6,21-52.5,32.8c-11.7,8.2-18.8,20.3-19.7,35.2c-0.4,6.3-0.8,12.6-1.3,20.5c-9.4-14.8-22-22.8-37.3-24.4
		c-12.1-1.3-25.3-1.8-36.8,1.4c-27.6,7.8-54.5,17.8-81.6,27.2c-25.6,8.9-51.2,17.3-78.9,15.5c-4.2-0.3-8.3-0.7-12.5-1.1
		c1.1,7.4,2.7,13.9,2.8,20.4c0.1,6.5-0.4,13.3-2.3,19.5c-8.3,26.9-16.9,53.8-25.9,80.5c-8.3,24.9-17.8,49.5-18.9,76.2
		c-0.7,19.6,4.3,36.7,21.3,48.5c1,0.7,1.7,1.8,3.3,3.5c-2.9,0-4.6,0.2-6.3,0c-22.2-2.3-38.7,7.9-51.8,24.4
		c-7.2,9.1-14.1,18.8-19.3,29.2c-12.1,23.9-22.7,48.5-34.5,72.5c-11.1,22.3-23.4,44-44.5,58.8c-1.3,0.9-2.1,2.5-3.7,4.2
		c17.2,8.2,26.5,23.1,35.5,38.1c4,6.7,7.8,13.5,11.2,20.5c11.9,24,22.8,48.5,35.8,72c7.6,13.7,17.5,26.3,27.7,38.3
		c9.1,10.8,21.8,16.2,36.1,16.8c4.9,0.2,9.9-0.5,16.5-0.8c-2.3,2.5-3.3,3.8-4.6,4.8c-14.7,11.3-20.5,26.5-20.9,44.6
		c-0.4,17.1,3.1,33.4,8.3,49.4c9.5,29.1,20,57.9,29.2,87.2c5.2,16.4,9,33.4,6.7,50.9c-1.4,10.6-1.6,10.5,9.2,9.2
		c1.7-0.2,3.4-0.1,5.1-0.1c25.2-0.1,49.1,6.1,72.4,15.1c29.9,11.6,59.1,25.7,91.4,29.3c24.5,2.8,48,1.4,64.5-21.1
		c0.5-0.7,1.4-1.1,2.7-2.1c-0.4,3.8-1,6.9-1,9.9c0,16.9,7.9,30.3,19.6,41.8c13.9,13.7,30.4,23.6,47.8,32
		c21.5,10.4,43.5,19.7,64.9,30.2c20.2,9.9,39.2,21.9,53.2,40.2c1.4,1.8,3.4,3.1,5.5,5c7.2-13.5,18.1-22.2,29.8-29.7
		c11.7-7.5,23.7-14.4,36.1-20.6c18.5-9.2,38-16.6,56-26.7c16-9,31.1-19.9,45.5-31.5c10.9-8.7,16.8-21.4,18.1-35.6
		c0.5-5.4,0.1-10.8,0.1-17.3c2.4,2.6,4.3,4.7,6.2,6.8c8.1,9.5,18.2,16.2,30.7,16.3c14,0.2,28.6,0.9,41.8-2.8
		c27.8-7.6,54.9-17.9,82.4-27.1c27.5-9.2,54.9-19,85.1-11.5c0-2.1,0.2-4,0-5.9c-2.9-18.4-1.4-36.6,4.2-54.1
		c7.4-23.1,16.1-45.9,24.3-68.8c8.4-23.4,16-47,14.1-72.5c-1.2-16.3-5.5-30.6-20-40.2c-2.1-1.4-3.9-3.4-6.6-5.7
		c1.9-0.2,2.5-0.4,3.1-0.3c24,4.5,43.5-3.2,57.8-22.5c9.8-13.3,19-27.2,26.7-41.8c11.1-21.1,20.4-43.1,30.9-64.6
		c8.4-17.2,18.5-33.3,32.9-46.2c3.7-3.3,7.9-6.2,12.4-9.7c-2.5-2.3-4.3-4.2-6.3-5.9c-15.1-12.5-27-27.5-35.6-45
		c-8.1-16.6-15.3-33.7-23.8-50.1c-10.3-19.8-20.3-40-32.9-58.4C1407.2,723.6,1386,712.3,1357.8,715.6z"/>
	<path d="M475.8,724.8c29.1,2.6,54.8-6,79-20.1c32.8-19.1,60.2-44.6,87-71.1c24.4-24.1,47.3-49.3,64.6-79
		c13-22.3,22.4-45.9,22.6-72.3c0-3.5-0.5-7-0.8-11.7c26.6,35.8,65.2,44.4,105,50.3c33.1,4.9,66.5,5.5,99.9,4.3
		c34.4-1.2,68.3-5.5,101-17.2c18.3-6.5,34.5-15.9,46.3-31.7c1.4-1.9,2.9-3.7,5-5.2c-4.5,27,2.7,51,15.2,74
		c21.4,39.2,51,71.8,83.1,102.4c23.9,22.7,48.5,44.6,77.7,60.5c19.7,10.8,40.4,18.2,63.2,17.9c4-0.1,8-0.7,12.6-1.2
		c-0.7,1.2-0.9,1.9-1.4,2.3c-25.7,19.2-35.8,47.3-42.7,76.8c-10.4,44-12.2,88.6-9.1,133.6c2.2,32.4,6.6,64.4,17.8,95
		c7.5,20.5,19,38.2,39.3,50.8c-7.6-0.4-13.8-0.5-20-1.1c-21.3-2.1-40.5,4.5-58.4,15.2c-28,16.7-53.5,36.6-76.6,59.6
		c-27.5,27.3-54.6,55.1-76.3,87.5c-11.8,17.8-22.2,36.3-25,57.8c-1.3,9.7-0.2,19.8-0.2,30.4c-1.4-1.1-2.8-1.9-3.6-3
		c-11.9-16.2-28.8-25.1-47-32.1c-25-9.6-51.2-13.3-77.8-14.9c-20.2-1.2-40.4-3.1-60.6-2.7c-34.3,0.7-68.5,4.3-101.8,13.1
		c-24.3,6.4-46.1,17.1-61.7,37.8c-0.9,1.1-2.1,2-3.5,3.4c3.3-37.4-11.3-68.8-32-97.5c-35.7-49.3-78.1-92.2-128.4-126.9
		c-19.4-13.4-40.4-23.7-63.8-28c-8.7-1.6-17.8-1-27-1.5c0.1,0.8-0.1,0.1,0,0.1c23.8-16.2,33.8-40.9,40.6-67.2
		c6.9-26.7,10.4-54,10.5-81.6c0-27-0.2-54.1-1.7-81.1c-1.3-24.3-5.2-48.3-13.4-71.5c-7-19.8-18.5-36.4-34.6-49.8
		c-0.9-0.8-1.8-1.7-2.6-2.6C476.1,726.1,476.1,725.6,475.8,724.8z M564.2,908.1c-6,148,121.2,336.7,340.8,337.9
		c192.4,1.1,342.3-151.9,344.6-337.1c2.5-197-150.5-348.2-346.3-349.3C723.1,558.5,557.7,714.6,564.2,908.1z"/>
	<path d="M653.2,884.8c0.1-26.4,7-51.8,10-77.6c1.8-15-0.3-30.5-0.7-45.8c-0.2-6.3-0.8-12.6-1-18.9c-0.1-4.5,2-7.6,6.6-8.1
		c6-0.6,12.1-1.1,18.2-1c14.1,0.2,28.3,0.7,42.4,1.3c10.7,0.5,21.4,1,32,2c9.7,0.9,9.7,1.2,6.3,10c-7.9,20.9-16,41.8-23.7,62.8
		c-8.2,22.5-15,45.7-15.2,69.6c-0.3,40.3,4.1,80.1,25.9,116c17.4,28.6,38.9,53.6,62.3,77.3c10.4,10.6,17.1,10.5,26.9-0.9
		c17.4-20,30.6-42.7,40.6-67.3c4.5-11.1,2.6-22.3-0.4-33.6c-8-30-16.2-60.1-23-90.4c-6-27-7.3-54.5-4.4-82.1
		c0.6-6.2-0.5-12.6-0.6-18.9c-0.2-11.6-0.6-23.2-0.2-34.8c0.1-1.8,3.3-4.8,5.4-5.1c6.7-1.1,13.5-1.7,20.3-1.6
		c17.1,0.2,34.1,0.8,51.2,1.3c2.9,0.1,5.8,0.3,8.7,0.8c15.2,2.7,17.9,6.6,13.7,21.3c-2.4,8.4-5.2,16.8-8.9,24.7
		c-18.4,39.9-17.8,80.7-5.9,121.9c14,48.4,37.9,91.6,70.2,130.3c5.8,6.9,11.3,14.1,17.4,20.7c10.3,11.2,18.5,10.2,25.3-3.5
		c23.3-46.6,41.2-94.9,48-147c4.8-36.8-2.3-70.5-23.7-100.5c-12.7-17.8-27.4-34.2-41-51.4c-3.2-4-6-8.2-8.5-12.6
		c-2.6-4.6-1-7.3,4.5-7.6c9-0.4,18-0.9,27-1.5c33.5-2.2,67-4.6,100.5-6.7c2.9-0.2,5.8,1.4,8.7,2.1c-0.8,2.7-0.9,5.9-2.5,8
		c-16.4,22.1-19.5,46.6-18.4,73.9c2.4,61.3-2.7,122.3-25.6,180.2c-19,47.9-45,92-79.2,130.6c-21.4,24.2-23.5,22.1-45.4,3.4
		c-29.4-25-56.3-52.6-79.5-83.6c-3.8-5-8-9.9-12.9-13.9c-5.7-4.8-10.8-3.5-14.6,2.9c-2,3.3-3.3,7-4.9,10.6
		c-15.3,33.4-38.9,60.6-64.9,85.8c-10.9,10.6-15.7,10.5-28.5,2.7c-74.3-44.7-117.4-110.7-132.8-195.3
		C655.9,918.8,655.1,901.7,653.2,884.8z"/>
</g>
</svg>
