<svg xmlns="http://www.w3.org/2000/svg" width="77.709" height="71.839" viewBox="0 0 77.709 71.839">
  <g id="Layer_5" transform="translate(-58.779 -57.852)">
    <g id="Layer_6" transform="translate(63.684 58.199)">
      <path id="Path_107" data-name="Path 107" d="M603.046,613.861c22.233-1.227,14.71,3.1,18.355-2.682,3.226-3.9.378-9.31-.456-11-.668-1.351.062.233-1.5,1.175-10.48,6.348-15.166-2.485-15.2-2.092C603.512,607.239,598.458,599.783,603.046,613.861Z" transform="translate(-577.965 -571.566)"/>
      <path id="Path_108" data-name="Path 108" d="M200.772,1101.625c-4.515-1.641-.678-4.468-5.991-4.106-30.212.145-12.39-.833-23.419,2.879-2.78,1.087-5.411-.321-8.02-.026-3.236,1.041-8.973,2.589-9.708,5.794-2.3,12.189,25.713,11.526,25.816-1.714.538-.4,6.048.694,6.167.067.875-4.489,3.977-3.169,7.539-1.481C194.087,1103.52,199.534,1101.661,200.772,1101.625Z" transform="translate(-153.499 -1044.003)" />
      <path id="Path_109" data-name="Path 109" d="M897.527,1189.463c9.361-7.534,18.438-7.906,25.635-4.924,6.653,3.34,3.05,8.838.409,10.3-5.333,2.107-8.119.963-13.913.891C897.315,1194.806,897.331,1196.722,897.527,1189.463Z" transform="translate(-858.963 -1124.898)"/>
      <path id="Path_110" data-name="Path 110" d="M707.16,73.341c.083-10.387-10.542-8.968-10.48.1C693.377,61.246,710.178,61.955,707.16,73.341Z" transform="translate(-668.145 -64.546)" />
    </g>
    <g id="Layer_7" transform="translate(58.779 57.852)">
      <path id="Path_111" data-name="Path 111" d="M121.892,129.691c-1.279,0-2.573-.078-3.821-.15-1.455-.083-2.832-.166-4.049-.124H114c-.621-.016-1.232-.031-1.817-.041-5.209-.109-8.973-.192-10.257-2.144-.642-.984-.6-2.361.145-4.215a9.363,9.363,0,0,1-3.174,1.217l-.036.005c-3.019.067-7.062,1.041-11.35,2.071-5.09,1.222-10.345,2.491-14.751,2.491h-.3a11.851,11.851,0,0,1-5.882-1.341,7.132,7.132,0,0,1-3.355-4.655,4.413,4.413,0,0,1,1.854-4.888c-2.175.414-3.816.285-4.883-.383-1.45-.911-1.792-2.723-1.015-5.4l.088-.3.316.021a.947.947,0,0,0,1.061-.611,1.33,1.33,0,0,1,1.455-.818l.067.01.062.031c3.262,1.688,5.053,2.465,6.42,2.325,1.32-.135,2.387-1.155,4.323-3.013.352-.337.715-.683,1.118-1.067l.021-.016a18.3,18.3,0,0,0,6.208-8.958,32.01,32.01,0,0,0,1.056-8.776c.1-4.65.192-8.668,4.717-10.392l.031-.01c.632-.181,1.3-.3,1.952-.419,3.832-.694,4.6-1.657,5.3-2.6a8.4,8.4,0,0,0-.518-6.886c-.331.078-.751-.01-1.331-.658l-.036-.036-.021-.047a7.317,7.317,0,0,1-.885-2.408V67.5a.842.842,0,0,1,1.041-1c-.627-3.153.016-5.8,1.792-7.342a5.286,5.286,0,0,1,3.138-1.284,9.059,9.059,0,0,1,4.1.725l.047.021.041.031c2.925,2.19,2.77,5.727,2.584,7.565a.63.63,0,0,1,.43.1c.518.337.409,1.3.259,1.838-.347,1.848-1.015,2.081-1.615,2.154a.26.26,0,0,0-.062.01v.005l-.016.041c-.709,1.745-1.269,5.131-.243,6.917a15.6,15.6,0,0,0,7.87,4.344c1.5.362,2.692.647,3.448,2.413.7,1.631,1.072,4.546,1.326,10.387.368,1.372.652,2.511.9,3.521.756,3.039,1.139,4.567,2.268,6.177,1.222,1.439,2.268,2.687,3.184,3.79,2.47,2.962,3.961,4.748,5.1,5.535.973.678,1.678.668,3.019-.052l.057-.031.062-.01a7.528,7.528,0,0,0,3.334-1.838c.808-.658,1.45-1.175,2.071-.979a1.385,1.385,0,0,1,.782.922.654.654,0,0,1,.663-.067.5.5,0,0,1,.228.435c.357,3.516-.373,5.8-2.164,6.793a5.54,5.54,0,0,1-3.459.471,2.236,2.236,0,0,1,1.046,1.729l.005.041c.047,2.988-.673,5.147-2.2,6.607C127.743,129.282,124.869,129.691,121.892,129.691Zm-7.166-1.056c1.056,0,2.2.067,3.391.135,4,.233,8.523.5,10.982-1.859,1.351-1.294,1.993-3.262,1.957-6.011-.078-.6-.264-.942-1.118-1.419l-.016-.01c-4.344-2.661-9.776-2.931-14.135-3.143-.072-.005-.145-.005-.217-.01-.15.269-.611.471-1.393.725l-.026.01-.026.005c-3.35.616-6.524,2.584-9.32,4.323-.922.57-1.786,1.108-2.6,1.564l.632.259c-.678,1.652-.761,2.832-.259,3.6,1.056,1.61,4.836,1.693,9.62,1.8.585.01,1.191.026,1.807.041C114.239,128.634,114.477,128.634,114.726,128.634ZM68.012,117.14a14.977,14.977,0,0,0-1.553.777,5.892,5.892,0,0,0-2.169,1.988,3.4,3.4,0,0,0-.311,2.7,6.321,6.321,0,0,0,2.993,4.178,11.131,11.131,0,0,0,5.5,1.237c4.365.057,9.7-1.227,14.85-2.465,4.318-1.041,8.4-2.019,11.495-2.092,1.46-.186,3.366-1.367,5.576-2.739,2.848-1.766,6.074-3.769,9.563-4.422.062-.021.119-.041.171-.057-.482-.031-.948-.062-1.388-.1a20.558,20.558,0,0,0-4.567.875c-2.087.559-4.059,1.093-5.639.637l-.047-.016-.041-.026c-1.621-.948-3.863-2.169-4.619-1.9-.243.088-.352.373-.528.86a3.387,3.387,0,0,1-1.8,2.226c-1.248.585-3.195.637-5.949.166a80.632,80.632,0,0,1-13.172-3.878c-.5-.026-1.01-.067-1.533-.119-.487.145-1.03.3-1.6.45-.9.249-1.89.518-2.879.839C69.55,116.606,68.758,116.891,68.012,117.14Zm10.7-2.024a72.651,72.651,0,0,0,10.977,3.1c2.558.44,4.406.4,5.488-.1a2.633,2.633,0,0,0,1.4-1.786c.2-.549.394-1.113.989-1.331.709-.259,1.874-.031,5.235,1.926,1.367.368,3.221-.129,5.178-.652.735-.2,1.476-.4,2.216-.559a2.964,2.964,0,0,1-2.025-1.476l-.052-.119.026-.124a4.169,4.169,0,0,0-.761-1.864,15.685,15.685,0,0,1-1.885-12.261l.031-.129.1-.083a12.106,12.106,0,0,0,1.434-2.5,8.578,8.578,0,0,0,1.02-3.443v-.026c-.026-1.326-.031-2.118-.031-2.641,0-.285.005-.492.016-.632.01-.161.031-.528.394-.559.161-.016.373.052.461.43.021.093.047.217.078.4.057.331.124.8.207,1.4.425,2.957,1.3,9.118,2.858,12.975l.047.119-.031.124c-.036.14.207.865,1.735,2.475a43.039,43.039,0,0,0,4.986,4.375,41.469,41.469,0,0,0,8.372,5.069c2.972,1.269,5.292,1.517,6.705.725,1.429-.8,2.03-2.713,1.781-5.68a.642.642,0,0,1-.471.041.506.506,0,0,1-.305-.269l-.016-.031-.01-.036c-.166-.59-.326-.668-.357-.678-.223-.072-.849.435-1.346.839a8.407,8.407,0,0,1-3.63,1.993c-1.346.715-2.4.927-3.775-.026-1.222-.849-2.651-2.563-5.25-5.675-.922-1.1-1.968-2.356-3.195-3.8l-.021-.031c-1.217-1.735-1.61-3.314-2.392-6.451-.254-1.015-.538-2.164-.911-3.547l-.01-.041v-.041c-.249-5.69-.616-8.631-1.269-10.154-.606-1.408-1.424-1.605-2.915-1.968-1.9-.456-4.5-1.082-8.259-4.567l-.041-.036-.026-.047c-1.2-2.009-.642-5.649.145-7.616a.713.713,0,0,1,.725-.57c.3-.036.678-.083.948-1.543l.01-.036a2.138,2.138,0,0,0,.078-.942,1.272,1.272,0,0,0-.223.155l-.73.616.093-.953c.01-.093.021-.2.031-.305.166-1.538.559-5.126-2.2-7.228a8.233,8.233,0,0,0-3.7-.652,4.65,4.65,0,0,0-2.713,1.087c-1.652,1.424-2.169,4.008-1.429,7.094l.052.212-.155.155a.7.7,0,0,1-.668.093,1.264,1.264,0,0,0-.357-.041.579.579,0,0,0-.01.171,6.878,6.878,0,0,0,.782,2.081c.409.45.544.388.627.357a.525.525,0,0,1,.461-.016.577.577,0,0,1,.28.362,9.215,9.215,0,0,1,.564,7.684l-.016.041-.026.036c-1.631,2.175-3.852,2.579-5.809,2.931a18.934,18.934,0,0,0-1.859.4,5.537,5.537,0,0,0-3.552,3.64A21.7,21.7,0,0,0,82.163,91c-.124,5.509-.274,12.365-7.539,18.314-.4.373-.756.72-1.1,1.051-2.061,1.978-3.195,3.065-4.784,3.226-1.553.161-3.433-.642-6.793-2.377-.316-.026-.409.1-.621.456a1.691,1.691,0,0,1-1.46.989c-.57,2.138-.316,3.567.761,4.241,1.284.8,3.806.621,7.15-.466.756-.321,1.548-.606,2.34-.86.492-.2.994-.414,1.512-.642A49.452,49.452,0,0,0,83.048,108l.021-.016.021-.016c.311-.212,1.279-1.983,2.19-5.292a43.659,43.659,0,0,0,1.517-9.91c-.176-1.077-.155-1.631.161-1.905l.637-.549.005.844c.005.518-.005,1.041-.021,1.569.1.57.249,1.274.419,2.076,1.01,4.753,2.7,12.7-1.32,17.164a9.244,9.244,0,0,1-4.489,2.656A18.649,18.649,0,0,1,78.709,115.115Zm35.556.362c.5.031,1.025.057,1.559.083a53.349,53.349,0,0,1,7.927.8,50,50,0,0,1-5.97-4.028,41.59,41.59,0,0,1-4.707-4.225c-1.574-1.7-1.807-2.459-1.771-2.874a54.562,54.562,0,0,1-2.511-10.656,13.543,13.543,0,0,1-1.025,2.915,13.883,13.883,0,0,1-1.533,2.656,14.972,14.972,0,0,0,1.833,11.6,4.66,4.66,0,0,1,.86,2.252c.471.839,1.926,1.175,3.837,1.357A7.256,7.256,0,0,1,114.265,115.478ZM76.54,114.333a17.36,17.36,0,0,0,5.426-.492,8.485,8.485,0,0,0,4.122-2.428c3.578-3.971,2.257-11.153,1.279-15.808a44.352,44.352,0,0,1-1.346,7.249c-.8,2.879-1.812,5.209-2.475,5.706a45.338,45.338,0,0,1-8.693,5.644h.01q.668.07,1.3.109l.041-.1C76.312,114.251,76.426,114.292,76.54,114.333ZM92.746,70.421Z" transform="translate(-58.779 -57.852)" />
      <path id="Path_112" data-name="Path 112" d="M543.508,1390.4c-4.106,0-8.476-.176-11.308-1.01l.233-.792c3.821,1.129,10.941,1,15.652.927,1.647-.026,3.07-.052,4.039-.021l-.026.828c-.953-.031-2.361-.005-4,.021C546.682,1390.376,545.113,1390.4,543.508,1390.4Z" transform="translate(-507.687 -1319.697)" />
      <path id="Path_113" data-name="Path 113" d="M618.434,1086.551c-7.554-.394-14.658-.249-21.208-.031l-.026-.828c6.565-.218,13.69-.357,21.275.031Z" transform="translate(-569.322 -1032.27)"/>
      <path id="Path_114" data-name="Path 114" d="M619.1,515.511c-.067,0-.124-.005-.181-.01a55.441,55.441,0,0,0-10.785-.171,18.55,18.55,0,0,1-3.4.047,2.486,2.486,0,0,1-2.019-1.289l.73-.4c.564,1.041,1.755,1,4.639.813a56.189,56.189,0,0,1,10.941.171h.015a1.135,1.135,0,0,0,.844-.4,8.762,8.762,0,0,0,1.942-3.681,17.864,17.864,0,0,0,.647-6.27,8.332,8.332,0,0,0-1.056-2.361,6.162,6.162,0,0,1-.513-.963,5,5,0,0,1-1.481,2.169c-1.3,1.072-3.371,1.512-6.907,1.47-2.889.217-4.391-.01-5.54-.839a9.389,9.389,0,0,1-2.506-3.568,7.129,7.129,0,0,1-.114,2.221,4.85,4.85,0,0,1-2.568,3.319l-.388-.73a4.039,4.039,0,0,0,2.138-2.724,8.609,8.609,0,0,0-.456-4.52,14.308,14.308,0,0,0-.689-1.678c-.15-.28-.305-.57-.471-.87l.7-.445a8.143,8.143,0,0,1,.508.932c.637,1.2,1.155,2.252,1.584,3.133,2.169,4.417,2.62,5.333,7.751,4.945h.041c3.288.036,5.261-.357,6.389-1.284,1.051-.859,1.4-2.169,1.89-3.987.005-.021.01-.047.016-.067a21.5,21.5,0,0,1,.968-3.138l.777.29h0a.005.005,0,0,1-.005.005c-.414,1.113-.694,2.144-.937,3.055a5.616,5.616,0,0,0-.114,1.051,3.1,3.1,0,0,0,.632,1.792,9.07,9.07,0,0,1,1.155,2.61l.01.036.005.041a18.6,18.6,0,0,1-.678,6.6,9.376,9.376,0,0,1-2.169,4.054A1.978,1.978,0,0,1,619.1,515.511Z" transform="translate(-573.304 -472.176)"/>
    </g>
  </g>
</svg>
