<svg xmlns="http://www.w3.org/2000/svg" width="73.138" height="71.588" viewBox="0 0 73.138 71.588">
  <g id="Group_134" data-name="Group 134" transform="translate(-1047 -3076.412)">
    <g id="Group_109" data-name="Group 109" transform="translate(1047 3076.412)">
      <path id="Path_103" data-name="Path 103" d="M1.349,489.962a11.219,11.219,0,0,1-5.923-2.015A10.092,10.092,0,0,1-8.489,483.5a13.125,13.125,0,0,1-1.021-5.868,18.3,18.3,0,0,1,2.841-9.414,20.492,20.492,0,0,1,7.041-6.49A9.628,9.628,0,0,1,6.716,460.4a12.293,12.293,0,0,1,5.885,2.747,34.3,34.3,0,0,1,3.76,3.722c.61.667,1.239,1.359,1.878,2,.373.374.745.763,1.108,1.136a34.451,34.451,0,0,0,3.644,3.429,6.043,6.043,0,0,0,6.194.535,1.739,1.739,0,0,0,.808-.843,13.4,13.4,0,0,0,.6-7.545,13.562,13.562,0,0,0-3.218-6.8,8.45,8.45,0,0,0-5.807-2.475,20.214,20.214,0,0,0-5.73.646c-.789.167-1.6.333-2.41.465-.557.091-1.1.131-1.742.182-.31.025-.629.051-.973.081l-.8.076.344-.758c.082-.177.145-.338.2-.48a3.087,3.087,0,0,1,.4-.783c.126-.157.252-.323.373-.485a13.353,13.353,0,0,1,1.723-1.975,6.616,6.616,0,0,1,2.313-1.232c1.36-.454,2.758-.833,4.109-1.2l.784-.212c.368-.1.489-.237.455-.8a2.933,2.933,0,0,0-2.333-2.838,11.467,11.467,0,0,0-6.988,1.066l-.053.025a2.488,2.488,0,0,1-1.224.247l-.692-.04.3-.652c.053-.116.106-.242.16-.369a4.775,4.775,0,0,1,.455-.9,9.991,9.991,0,0,1,4.452-3.778,15.2,15.2,0,0,1,6.877-1.313,4.627,4.627,0,0,1,3.7,1.939,4.747,4.747,0,0,1,.44,4.015,14.958,14.958,0,0,1-1.355,2.949c-.111.2-.223.4-.334.611.194,0,.392-.01.6-.02a5.119,5.119,0,0,1,1.9.146c1.249.419,1.81-.076,2.72-1.217a28.367,28.367,0,0,1,7.332-6.6,24.827,24.827,0,0,1,9.166-3.348,16.167,16.167,0,0,1,5.028-.035,13.306,13.306,0,0,1,4.442,1.515,13.663,13.663,0,0,1,3.673,3.01,17.171,17.171,0,0,1,2.729,4.4c3.262,7.515,2.541,14.464-2.149,20.651-2.25,2.965-4.834,5.969-8.5,7.818a8.855,8.855,0,0,1-5.744.919A7.289,7.289,0,0,1,40.63,475a10.522,10.522,0,0,1-1.965-5.081,10.717,10.717,0,0,1,.963-5.389,14.216,14.216,0,0,1,5.241-6.035,4.417,4.417,0,0,1,6.151.556,2.107,2.107,0,0,1-.058,3.06c-.324.333-.653.677-.973,1.01-.532.556-1.084,1.136-1.645,1.682a3.179,3.179,0,0,1-.789.515c-.131.071-.266.141-.411.222l-.523.308-.15-.606a2.4,2.4,0,0,0-2.405-2.091c-.01.121-.019.237-.024.354a15.122,15.122,0,0,0-.063,1.667,8.2,8.2,0,0,0,2.444,5.661,6.265,6.265,0,0,0,4.747,1.747,6.413,6.413,0,0,0,3.271-1.076,7.019,7.019,0,0,0,2.265-2.737,16.207,16.207,0,0,0,1.408-9.2,18.474,18.474,0,0,0-4-9.8c-3.189-3.929-7.423-5.353-12.95-4.353a20.7,20.7,0,0,0-7.075,2.722,6.07,6.07,0,0,0-2.487,2.631,8.6,8.6,0,0,1-.794,1.268l-.126.177c.034.025.073.056.111.081a10.608,10.608,0,0,1,1.094.9,13.5,13.5,0,0,1,3.407,5.4,18.231,18.231,0,0,1,.857,6.323,14.09,14.09,0,0,1-1.069,4.9,18.046,18.046,0,0,1-2.623,4.465,15.473,15.473,0,0,1-8.135,5.55,8.263,8.263,0,0,1-4.317-.066A8.978,8.978,0,0,1,16.3,477.5c-.726-.712-1.394-1.5-2.037-2.257-.436-.515-.89-1.051-1.355-1.55-.411-.444-.828-.9-1.224-1.353a40.1,40.1,0,0,0-3.717-3.788A9.772,9.772,0,0,0-1.051,466.3a2.751,2.751,0,0,0-2.129,1.843c-1.573,4.2-1.452,7.853.358,11.176a9.486,9.486,0,0,0,8.241,5.025,2.286,2.286,0,0,0,1.994-.672,3.134,3.134,0,0,0,.387-2.626,4.867,4.867,0,0,0-2.236-3.308c-1.21-.763-2.086-.747-2.928.04a2.343,2.343,0,0,1-.813.439c-.106.04-.208.076-.3.116l-.3.141-.648-.742.165-.3c.058-.111.116-.232.174-.359a3.152,3.152,0,0,1,.552-.914c.126-.136.256-.273.382-.409a31.479,31.479,0,0,1,2.734-2.707,5.478,5.478,0,0,1,2.942-1.4,4.449,4.449,0,0,1,2.894.8,6.146,6.146,0,0,1,2.657,6.086,9.646,9.646,0,0,1-2.163,4.894,35.919,35.919,0,0,1-4.675,4.727A7.7,7.7,0,0,1,1.349,489.962Zm4.021-28.7a8.914,8.914,0,0,0-4.549,1.3c-6.01,3.5-9.175,8.581-9.412,15.1-.155,4.3,1.355,7.48,4.491,9.459a10.865,10.865,0,0,0,4.922,1.858,6.734,6.734,0,0,0,4.859-1.606,35.207,35.207,0,0,0,4.549-4.606,8.7,8.7,0,0,0,1.941-4.409,5.17,5.17,0,0,0-2.231-5.116c-1.626-1.04-3.1-.879-4.781.53A30.848,30.848,0,0,0,2.506,476.4c-.126.136-.256.273-.382.414a1.467,1.467,0,0,0-.218.323.692.692,0,0,0,.116-.081c1.152-1.076,2.468-1.126,4.017-.147A5.855,5.855,0,0,1,8.7,480.846a4.058,4.058,0,0,1-.59,3.444,3.14,3.14,0,0,1-2.744,1,11.557,11.557,0,0,1-5.183-1.5,10.243,10.243,0,0,1-3.8-4.01,12.635,12.635,0,0,1-1.573-5.954,16.692,16.692,0,0,1,1.157-6.045,3.647,3.647,0,0,1,2.778-2.429,10.665,10.665,0,0,1,5.217-.005A11.587,11.587,0,0,1,8.545,467.8a40.287,40.287,0,0,1,3.809,3.874c.4.444.808.9,1.215,1.338.479.515.934,1.056,1.379,1.581.629.742,1.282,1.515,1.979,2.2a7.333,7.333,0,0,0,7.2,2.091,14.569,14.569,0,0,0,7.636-5.232,15.285,15.285,0,0,0,3.484-8.783c.126-4.677-1.176-8.277-3.973-10.995a10.01,10.01,0,0,0-1-.818c-.16-.121-.329-.247-.489-.374l-.348-.278.252-.379c.135-.2.271-.394.406-.581a7.5,7.5,0,0,0,.707-1.116,6.966,6.966,0,0,1,2.85-3.035,21.57,21.57,0,0,1,7.38-2.838,15.756,15.756,0,0,1,7.52.273,13.077,13.077,0,0,1,6.291,4.4,19.408,19.408,0,0,1,4.21,10.308,17.224,17.224,0,0,1-1.505,9.752,7.227,7.227,0,0,1-6.3,4.333c-.155.01-.315.015-.469.015a7.165,7.165,0,0,1-4.951-2.01,9.182,9.182,0,0,1-2.749-6.338,15.463,15.463,0,0,1,.068-1.778c.019-.263.039-.54.053-.808l.024-.465.445.01c1.882.045,3,.753,3.547,2.268a2.287,2.287,0,0,0,.518-.328c.552-.54,1.094-1.111,1.621-1.662.319-.333.648-.682.978-1.015a1.128,1.128,0,0,0,.024-1.722,3.755,3.755,0,0,0-1.578-1.061,3.81,3.81,0,0,0-3.4.657,13.279,13.279,0,0,0-4.907,5.636,9.146,9.146,0,0,0,.9,9.5c2.037,2.894,5.647,3.606,9.19,1.818,3.5-1.768,6-4.672,8.183-7.55a18.51,18.51,0,0,0,3.881-9.51,20.619,20.619,0,0,0-1.849-10.151c-2.763-6.358-8.193-9.4-14.9-8.343a24.08,24.08,0,0,0-8.837,3.227,27.458,27.458,0,0,0-7.09,6.384c-.948,1.192-1.882,2.126-3.712,1.52a4.555,4.555,0,0,0-1.578-.1c-.281.015-.576.025-.866.02-.2-.005-.387-.025-.5-.035a.334.334,0,0,0-.063-.005l-.7-.051.319-.646c.223-.444.465-.884.7-1.308a13.868,13.868,0,0,0,1.273-2.752,3.419,3.419,0,0,0-3.315-4.712,14.339,14.339,0,0,0-6.485,1.247,9.1,9.1,0,0,0-4.041,3.444,2.466,2.466,0,0,0-.169.3l.077-.03.058-.025a12.308,12.308,0,0,1,7.52-1.116,3.879,3.879,0,0,1,3.058,3.712,1.555,1.555,0,0,1-1.137,1.8l-.784.212c-1.34.364-2.729.742-4.06,1.187a5.867,5.867,0,0,0-2,1.05,12.2,12.2,0,0,0-1.6,1.838c-.126.162-.252.328-.377.49a1.46,1.46,0,0,0-.174.323l.218-.015c.615-.045,1.147-.086,1.67-.172.789-.126,1.592-.293,2.366-.455a21.186,21.186,0,0,1,5.981-.662,9.305,9.305,0,0,1,6.388,2.752c3.518,3.661,4.805,10.722,2.812,15.414a2.7,2.7,0,0,1-1.311,1.348,6.809,6.809,0,0,1-7.075-.657,35.075,35.075,0,0,1-3.746-3.52c-.358-.374-.731-.758-1.1-1.126-.653-.662-1.292-1.359-1.907-2.035a33.15,33.15,0,0,0-3.654-3.621A11,11,0,0,0,5.371,461.266Z" transform="translate(9.521 -418.374)" fill="#5131ec"/>
      <path id="Path_104" data-name="Path 104" d="M606.336,192.158a2.611,2.611,0,0,1-.383-.028,3.775,3.775,0,0,1-2.177-1.434c-.175-.2-.341-.412-.5-.615a6.146,6.146,0,0,0-1.041-1.126,26.894,26.894,0,0,0-2.29-1.486c-.35-.208-.71-.426-1.074-.653l-.369-.232.222-.379a11.214,11.214,0,0,1,3.568-3.913,1.984,1.984,0,0,1,1.443-.137,7.42,7.42,0,0,1,4.022,2.555c.161.194.312.393.459.591.128.17.251.331.379.487.606.748.965,1.055,1.235,1.074.327.019.838-.426,1.339-.909a43.213,43.213,0,0,1,8.924-7c.326-.185.658-.355.961-.511a1.157,1.157,0,0,1,.322-.095c.062-.014.137-.028.237-.052l.847-.194-.331.8c-.057.132-.1.27-.142.4a1.977,1.977,0,0,1-.421.838c-.246.256-.487.525-.724.79a11.251,11.251,0,0,1-2.413,2.21,30.681,30.681,0,0,0-6.681,5.375,20.3,20.3,0,0,1-3.289,2.849A3.81,3.81,0,0,1,606.336,192.158Zm-6.625-5.872c.232.142.459.279.686.416a27.193,27.193,0,0,1,2.371,1.538,6.744,6.744,0,0,1,1.207,1.287c.161.2.312.4.473.577,1.193,1.363,2.073,1.5,3.478.521a19.391,19.391,0,0,0,3.142-2.726,31.669,31.669,0,0,1,6.875-5.532,10.524,10.524,0,0,0,2.21-2.039c.241-.27.487-.544.743-.8-.123.066-.251.137-.374.208a45.047,45.047,0,0,0-8.744,6.866c-1.046,1.008-1.528,1.188-2.016,1.159-.648-.038-1.178-.544-1.878-1.4-.137-.17-.27-.345-.4-.516-.147-.194-.284-.379-.431-.554a6.555,6.555,0,0,0-3.539-2.257,1.24,1.24,0,0,0-.748.019A10.146,10.146,0,0,0,599.711,186.286Z" transform="translate(-568.747 -169.304)" fill="#5131ec"/>
      <g id="Group_108" data-name="Group 108" transform="translate(37.812 0)">
        <path id="Path_105" data-name="Path 105" d="M783.739,6.3c1.145,1.656,1.249,3.492,1.618,5.243a9.894,9.894,0,0,1-1,6.478c-.473.984-1.017,1.169-1.954.644-.724-.407-1.391-.918-2.087-1.377a2.2,2.2,0,0,1-.909-2.451c.492-3.062,2.11-5.584,3.809-8.068A4.109,4.109,0,0,1,783.739,6.3Z" transform="translate(-778.905 -5.633)" fill="#4c15ad"/>
        <path id="Path_106" data-name="Path 106" d="M774.306,5.965a2.257,2.257,0,0,1-1.093-.345c-.5-.279-.975-.61-1.434-.927-.222-.156-.454-.317-.681-.464a2.647,2.647,0,0,1-1.1-2.9c.5-3.118,2.125-5.683,3.885-8.248a1.773,1.773,0,0,1,.379-.374c.066-.052.132-.109.208-.175l.379-.336.289.416a10.385,10.385,0,0,1,1.486,4.32c.066.36.132.729.2,1.084a10.292,10.292,0,0,1-1.036,6.767A1.933,1.933,0,0,1,774.7,5.913,1.579,1.579,0,0,1,774.306,5.965Zm.355-12.421c-.019.019-.028.033-.038.043-1.7,2.479-3.265,4.95-3.738,7.883a1.747,1.747,0,0,0,.71,2.006c.237.156.473.322.7.478a15.012,15.012,0,0,0,1.358.88,1.133,1.133,0,0,0,.786.213c.18-.057.364-.279.544-.658a9.461,9.461,0,0,0,.97-6.189c-.08-.369-.147-.748-.213-1.112A10.662,10.662,0,0,0,774.661-6.456Z" transform="translate(-769.93 7.8)" fill="#5131ec"/>
      </g>
    </g>
  </g>
</svg>
