<svg xmlns="http://www.w3.org/2000/svg" width="60.845" height="71.588" viewBox="0 0 60.845 71.588">
  <g id="Group_113" data-name="Group 113" transform="translate(-189 -2543.412)">
    <g id="Group_95" data-name="Group 95" transform="translate(189 2543.412)">
      <path id="Path_56" data-name="Path 56" d="M638.728,134.543a.457.457,0,0,1-.448-.365,3.884,3.884,0,0,1-.05-1.24c-.124-3.4-.249-5.349-.651-5.7-.133-.112-.427-.087-.941-.033a8.9,8.9,0,0,1-2.413,0,.444.444,0,0,1-.158-.054,3.508,3.508,0,0,0-2.7-.431,8.794,8.794,0,0,1-1.352.12H630c-.788.655-.688.991-.506,1.634.261.916.622,2.169-1.53,4.379a.457.457,0,0,1-.435.124.45.45,0,0,1-.328-.315,1.684,1.684,0,0,0-.693-.933.456.456,0,0,1,.431-.8,2.289,2.289,0,0,1,.825.8c1.285-1.5,1.07-2.26.854-3a2.12,2.12,0,0,1,.941-2.7.449.449,0,0,1,.294-.1,7.666,7.666,0,0,0,1.377-.108,4.369,4.369,0,0,1,3.2.5,8.119,8.119,0,0,0,2.1-.008,1.988,1.988,0,0,1,1.634.253c.6.522.771,1.663.912,4.972a.457.457,0,0,1,.3.63,3,3,0,0,0-.24.825c.012.344.025.709.037,1.091a.457.457,0,0,1-.4.469A.082.082,0,0,0,638.728,134.543Z" transform="translate(-600.794 -121.372)" />
      <path id="Path_57" data-name="Path 57" d="M292.71,877.883a.451.451,0,0,1-.265-.087.461.461,0,0,1-.1-.639c1.2-1.659,1.742-3.985,2.231-7.194a.455.455,0,1,1,.9.137c-.51,3.342-1.086,5.78-2.393,7.588A.444.444,0,0,1,292.71,877.883Z" transform="translate(-280.63 -834.383)" />
      <path id="Path_58" data-name="Path 58" d="M739.614,232.9h-.05c-1.53-.029-2.7-1.343-3.483-3.91a.468.468,0,0,1-.017-.075,9.074,9.074,0,0,0-.929-2.7,9.214,9.214,0,0,1-.974-2.948,34.551,34.551,0,0,1-.551-5.283c-.17-3.2-.328-6.228-2.007-8.936a2.57,2.57,0,0,1-.456-2.024,5.5,5.5,0,0,0-.431-2.778.358.358,0,0,1-.029-.087.874.874,0,0,1,.489-.937,9.622,9.622,0,0,1,1.144-.568,1.968,1.968,0,0,1,.054-1.555,3.139,3.139,0,0,1,1.414-1.028c.012-.1.021-.253.029-.373.046-.7.1-1.576.717-1.791a1.189,1.189,0,0,1,1.165.423.948.948,0,0,1,.676,0c.817.319,1.153,1.708,1.891,4.756.158.655.34,1.4.543,2.206a.458.458,0,1,1-.887.224c-.2-.813-.386-1.559-.543-2.214-.323-1.335-.581-2.388-.821-3.11-.294-.883-.481-1-.518-1.008-.008,0-.066,0-.187.083a.455.455,0,0,1-.589-.07,1.974,1.974,0,0,0-.419-.377,4.5,4.5,0,0,0-.124.941c-.033.51-.054.821-.29,1a.411.411,0,0,1-.071.046l-.112.058a3.049,3.049,0,0,0-1.095.7c-.112.191-.07.551.145,1.2a.454.454,0,0,1-.249.56,12.94,12.94,0,0,0-1.443.7,6.464,6.464,0,0,1,.444,3.039c-.029.709-.033,1.124.228,1.377a.411.411,0,0,1,.066.083c1.829,2.919,2,6.22,2.173,9.413a33.544,33.544,0,0,0,.539,5.163l.046.211a.446.446,0,0,1,0,.166,9.409,9.409,0,0,0,.854,2.351,10.16,10.16,0,0,1,1,2.932c.651,2.123,1.53,3.205,2.616,3.226,1.053.021,2.393-.945,3.761-2.716a18.988,18.988,0,0,0,2.753-4.968.456.456,0,1,1,.862.3,19.976,19.976,0,0,1-2.894,5.229C742.981,231.237,741.326,232.9,739.614,232.9Z" transform="translate(-700.859 -190.528)" />
      <path id="Path_59" data-name="Path 59" d="M968.432,662.683a.469.469,0,0,1-.323-.133.458.458,0,0,1,0-.647c.128-.128.278-.265.435-.411a5.5,5.5,0,0,0,1.526-1.874.456.456,0,0,1,.871.274,6.07,6.07,0,0,1-1.775,2.264c-.149.141-.294.274-.41.39A.44.44,0,0,1,968.432,662.683Z" transform="translate(-928.329 -632.826)"/>
      <path id="Path_60" data-name="Path 60" d="M230.3,861.437a.44.44,0,0,1-.191-.041.454.454,0,0,1-.22-.605,23.174,23.174,0,0,1,2.687-4.325,25.048,25.048,0,0,0,4.06-7.584.478.478,0,0,1,.05-.1c.211-.315.39-.576.531-.788a6.31,6.31,0,0,0,.668-1.1,9.546,9.546,0,0,0,.365-1.426c.328-1.547,1.016-4.764,3.172-12.328a.457.457,0,0,1,.879.249c-2.148,7.53-2.832,10.731-3.16,12.266a5.428,5.428,0,0,1-1.169,2.849c-.141.207-.3.444-.493.734A25.656,25.656,0,0,1,233.314,857a22.465,22.465,0,0,0-2.592,4.172A.477.477,0,0,1,230.3,861.437Z" transform="translate(-220.811 -799.137)"/>
      <path id="Path_61" data-name="Path 61" d="M127.915,1062.688a.443.443,0,0,1-.278-.1.456.456,0,0,1-.087-.639c2.227-2.919,3.114-6.647,3.968-10.25l.041-.174c.22-2.252,1.526-3.919,2.786-5.536l.1-.137a.455.455,0,1,1,.717.56l-.1.137c-1.24,1.588-2.413,3.089-2.6,5.088a.167.167,0,0,1-.012.062l-.05.207c-.879,3.7-1.787,7.522-4.13,10.594A.431.431,0,0,1,127.915,1062.688Z" transform="translate(-122.664 -1003.187)"/>
      <path id="Path_62" data-name="Path 62" d="M483.788,970.59a.469.469,0,0,1-.149-.025.457.457,0,0,1-.282-.58,12.721,12.721,0,0,0,.253-5.557c-.07-.684-.141-1.393-.17-2.1v-.054a29.731,29.731,0,0,0-.618-8.874.457.457,0,0,1,.892-.2,30.539,30.539,0,0,1,.639,9.118c.033.676.1,1.36.166,2.024a13.548,13.548,0,0,1-.3,5.946A.463.463,0,0,1,483.788,970.59Z" transform="translate(-463.281 -914.195)" />
      <path id="Path_63" data-name="Path 63" d="M1032.239,932.576a.456.456,0,0,1-.44-.34c-1.02-3.923-.813-7.36-.576-11.337l0-.087a.072.072,0,0,1,0-.029c.108-.875.286-1.762.46-2.617a22.487,22.487,0,0,0,.547-3.819.456.456,0,0,1,.456-.448h.012a.458.458,0,0,1,.448.464,22.959,22.959,0,0,1-.564,3.981c-.17.834-.344,1.7-.448,2.534l0,.075c-.236,3.9-.435,7.273.547,11.055a.455.455,0,0,1-.328.556A.6.6,0,0,1,1032.239,932.576Z" transform="translate(-988.769 -876.87)"/>
      <path id="Path_64" data-name="Path 64" d="M13.861,1446.823a2.131,2.131,0,0,1-.9-.2l-.087-.037a2.5,2.5,0,0,1-.688-.381.892.892,0,0,1-.261-1.012c0-.008,0-.012.008-.021.381-.945.377-.966.278-1.576-.05-.315-.129-.792-.182-1.563a3.4,3.4,0,0,1,.1-1.692,9.227,9.227,0,0,0,.419-2.62c.112-1.372.983-1.779,1.907-2.21a7.244,7.244,0,0,0,2.335-1.547.457.457,0,1,1,.651.643,8.17,8.17,0,0,1-2.6,1.733c-.937.435-1.319.647-1.385,1.455a9.81,9.81,0,0,1-.473,2.857c-.087.241-.124.34-.05,1.314.054.734.124,1.169.174,1.485a2.886,2.886,0,0,1-.328,2.052.015.015,0,0,1,0,.008,1.868,1.868,0,0,0,.448.228c.033.012.066.029.1.042,0,0,.008,0,.012,0,1.037.473,1.895-.539,2.824-1.808.07-.1.141-.191.207-.278a.457.457,0,0,1,.821.274,2.9,2.9,0,0,0,.2,1.4,3.222,3.222,0,0,0,.991-1.31.473.473,0,0,1,.133-.153,3.566,3.566,0,0,0,.784-1.642,6.507,6.507,0,0,1,.788-1.854,4.129,4.129,0,0,0,.755-2.666,1.645,1.645,0,0,1,.253-1.178.457.457,0,0,1,.738.539c-.1.133-.1.257-.079.593a5.026,5.026,0,0,1-.892,3.2l-.025.037a5.74,5.74,0,0,0-.668,1.6,4.345,4.345,0,0,1-1.024,2.036c-.692,1.285-1.356,1.862-1.982,1.7-.452-.112-.676-.552-.788-1.074a6.3,6.3,0,0,1-1.012,1.037A2.455,2.455,0,0,1,13.861,1446.823Z" transform="translate(-11.87 -1375.235)"/>
      <path id="Path_65" data-name="Path 65" d="M284.12,1405.816a.457.457,0,0,1-.037-.912l4.093-.34a.458.458,0,0,1,.075.912l-4.093.34Z" transform="translate(-272.392 -1347.186)"/>
      <path id="Path_66" data-name="Path 66" d="M604.455,1407.056a.456.456,0,0,1-.137-.891c.738-.232,1.493-.456,2.223-.676,6.539-1.957,8.09-2.836,9.587-3.686l.357-.211c3.541-2.115,6.6-3.939,9.657-4.59a11.076,11.076,0,0,1,4.769-.008,15.62,15.62,0,0,1,5.237,2.33.455.455,0,0,1-.5.763c-3.33-2.181-6.2-2.857-9.313-2.194-2.915.622-5.909,2.409-9.38,4.483l-.361.216s0,0-.008,0a46.3,46.3,0,0,1-9.778,3.769c-.726.216-1.476.444-2.21.672A.643.643,0,0,1,604.455,1407.056Z" transform="translate(-579.446 -1339.685)"/>
      <path id="Path_67" data-name="Path 67" d="M178.408,1665.809a6.856,6.856,0,0,1-4.163-1.277.457.457,0,1,1,.535-.742,6.062,6.062,0,0,0,4.047,1.091,22.368,22.368,0,0,0,4.507-.883c.921-.249,1.874-.5,2.791-.672a.455.455,0,0,1,.166.9c-.879.162-1.771.4-2.716.655a22.681,22.681,0,0,1-4.7.916C178.715,1665.805,178.561,1665.809,178.408,1665.809Z" transform="translate(-167.331 -1595.212)"/>
      <path id="Path_68" data-name="Path 68" d="M387.286,1335.943a29.8,29.8,0,0,1-6-.8c-2.231-.46-4.337-.891-6.1-.5a.456.456,0,1,1-.195-.891c1.949-.431,4.147.021,6.477.5a31.156,31.156,0,0,0,5.341.775,11.892,11.892,0,0,0,5.5-1.053,2.4,2.4,0,0,0,.556-.883,3.267,3.267,0,0,1,.846-1.26c2.007-1.833,4.051-1.02,6.025-.232.4.162.817.323,1.236.473a9.467,9.467,0,0,0,1.663-.589,8.377,8.377,0,0,1,2.293-.713,5.741,5.741,0,0,1,3.031.522.5.5,0,0,1,.066.033c.05.033.141.083.245.145a9.611,9.611,0,0,1,1.46.991c.875.775.829,1.4.634,1.791a.455.455,0,1,1-.817-.4c.1-.207-.261-.564-.423-.7a8.6,8.6,0,0,0-1.31-.887c-.1-.058-.182-.108-.249-.145a4.966,4.966,0,0,0-4.57.207,10.045,10.045,0,0,1-1.957.668.417.417,0,0,1-.236-.016c-.481-.162-.945-.348-1.4-.527-1.953-.775-3.491-1.389-5.08.062,0,0-.012.008-.017.013a2.428,2.428,0,0,0-.605.941,3.134,3.134,0,0,1-.854,1.252.681.681,0,0,1-.091.058A12.7,12.7,0,0,1,387.286,1335.943Z" transform="translate(-359.598 -1276.405)"/>
      <path id="Path_69" data-name="Path 69" d="M1096.4,1457.382a44.654,44.654,0,0,1-8.558-1.037.457.457,0,1,1,.182-.9,38.474,38.474,0,0,0,9.545.983,7,7,0,0,0,4.084-1.244,3.4,3.4,0,0,0,.983-3.006,2.063,2.063,0,0,1,.083-.937c.456-3.044-.85-3.69-3-4.752-.431-.211-.879-.435-1.344-.693a.458.458,0,0,1,.444-.8c.444.245.883.46,1.3.672,2.193,1.082,4.089,2.015,3.487,5.8a.462.462,0,0,1-.062.17,4.027,4.027,0,0,0,0,.5,4.3,4.3,0,0,1-1.3,3.74,7.841,7.841,0,0,1-4.619,1.46C1097.241,1457.37,1096.83,1457.382,1096.4,1457.382Zm7.1-5.681Z" transform="translate(-1042.878 -1385.894)"/>
      <path id="Path_70" data-name="Path 70" d="M669.088,1613.461a.721.721,0,0,1-.1-.008c-2.081-.44-4.192-.863-6.236-1.273-1.812-.365-3.686-.742-5.544-1.128a.455.455,0,1,1,.187-.891c1.858.39,3.728.763,5.54,1.128,2.044.411,4.159.833,6.245,1.277a.452.452,0,0,1-.1.9Z" transform="translate(-630.105 -1544.249)"/>
      <path id="Path_71" data-name="Path 71" d="M405.777,1362.827a.461.461,0,0,1-.3-.112,4.967,4.967,0,0,0-2.16-1.24,3.22,3.22,0,0,0-1.46.133,4.179,4.179,0,0,1-2.247.1c-.008,0-.012,0-.021,0a2.4,2.4,0,0,1-1.2-1c-.319-.423-.535-.684-.929-.721-.012,0-.025,0-.037,0a6.042,6.042,0,0,0-2.252.174,9.45,9.45,0,0,1-1.878.245h-.012a1.281,1.281,0,0,0-.954.514.458.458,0,0,1-.29.771.622.622,0,0,1-.585-.261.783.783,0,0,1,0-.821,2.155,2.155,0,0,1,1.783-1.115h.033a8.352,8.352,0,0,0,1.725-.228,7.041,7.041,0,0,1,2.571-.182,2.223,2.223,0,0,1,1.559,1.078,1.637,1.637,0,0,0,.73.672,3.376,3.376,0,0,0,1.791-.1,3.987,3.987,0,0,1,1.849-.145,5.706,5.706,0,0,1,2.583,1.447.458.458,0,0,1,.05.643A.475.475,0,0,1,405.777,1362.827Z" transform="translate(-375.605 -1303.525)"/>
      <path id="Path_72" data-name="Path 72" d="M318.08,866.016a.45.45,0,0,1-.419-.278,6.557,6.557,0,0,1-.315-1.215,3.464,3.464,0,0,0-.734-1.887.24.24,0,0,1-.046-.046,4.151,4.151,0,0,0-2.708-.319,5.471,5.471,0,0,0-2.426.664,2.965,2.965,0,0,0,.95.415.457.457,0,1,1-.261.875c-.746-.224-1.609-.572-1.642-1.248-.021-.444.319-.813,1.008-1.1a9.4,9.4,0,0,1,3.048-.564,3.9,3.9,0,0,1,2.687.639,4.059,4.059,0,0,1,1.02,2.393,6.145,6.145,0,0,0,.261,1.037.46.46,0,0,1-.423.634Z" transform="translate(-298.096 -826.46)"/>
      <path id="Path_73" data-name="Path 73" d="M312.22,57.647h-.037a.455.455,0,0,1-.419-.489c.386-5.03.958-7.547,2.119-9.288,1.215-1.829,3.1-2.774,5.95-4.2,1.708-.858,3.827-1.924,6.431-3.479a14.147,14.147,0,0,0-.29-4.98c-1.468-1.281-1.29-2.782-1.12-4.238a8.435,8.435,0,0,0,.075-2.069.2.2,0,0,1,0-.05,7.122,7.122,0,0,1,.742-2.927,10.625,10.625,0,0,0,.564-1.592c.012-.116.021-.228.025-.34a1.715,1.715,0,0,1,.535-1.36c1.97-1.845,6.373-2.351,8.9-1.016a3.44,3.44,0,0,1,1.932,3.682,9.381,9.381,0,0,1,.386,6.042,3.753,3.753,0,0,1,.087,3.176,2.857,2.857,0,0,0-.054,2.247.474.474,0,0,1,.021.3c-.195.7-.382,1.227-.531,1.65a3.848,3.848,0,0,0-.054,3.189.457.457,0,0,1-.875.261,4.716,4.716,0,0,1,.066-3.757c.133-.377.3-.846.469-1.443a3.779,3.779,0,0,1,.087-2.728,2.884,2.884,0,0,0-.108-2.637.454.454,0,0,1-.033-.352,8.433,8.433,0,0,0-.348-5.71.428.428,0,0,1-.029-.249,2.531,2.531,0,0,0-1.443-2.861,7.327,7.327,0,0,0-4.147-.581,6.809,6.809,0,0,0-3.715,1.464s-.012.008-.017.017c-.178.149-.2.3-.224.722-.008.124-.017.265-.033.419a.209.209,0,0,1-.008.05,10.853,10.853,0,0,1-.618,1.766,6.354,6.354,0,0,0-.672,2.534,9.179,9.179,0,0,1-.075,2.272c-.17,1.418-.3,2.542.912,3.529a.479.479,0,0,1,.158.253,14.975,14.975,0,0,1,.307,5.681.456.456,0,0,1-.216.319c-2.716,1.638-4.909,2.741-6.676,3.624-2.82,1.414-4.52,2.272-5.6,3.9-1.062,1.6-1.6,3.993-1.965,8.853A.454.454,0,0,1,312.22,57.647Z" transform="translate(-299.327 -20.861)"/>
      <path id="Path_74" data-name="Path 74" d="M973.89,726.2a3.1,3.1,0,0,1-.394-.029.456.456,0,0,1,.124-.9,1.3,1.3,0,0,0,.4.012,6.864,6.864,0,0,0-.149-1.679c-.029-.207-.066-.431-.1-.672a2.773,2.773,0,0,0-.684-.85,4.31,4.31,0,0,1-.763-.891.129.129,0,0,1-.021-.042c-.647-1.406-.9-1.406-2.824-1.393-.216,0-.46,0-.726,0a.456.456,0,1,1,0-.912h0c.257,0,.489,0,.717,0a5.614,5.614,0,0,1,2.264.236,3,3,0,0,1,1.389,1.667,3.731,3.731,0,0,0,.6.68,3.345,3.345,0,0,1,.925,1.236.33.33,0,0,1,.021.091c.037.261.075.5.1.717.211,1.406.307,2.048-.1,2.463A1.1,1.1,0,0,1,973.89,726.2Z" transform="translate(-928.641 -689.894)"/>
      <path id="Path_75" data-name="Path 75" d="M611.9,520.957a4.625,4.625,0,0,1-1.256-.182,7.54,7.54,0,0,1-3.409-2.177,7.233,7.233,0,0,1-1.9-4.064.457.457,0,1,1,.908-.1,6.747,6.747,0,0,0,4.652,5.469,2.283,2.283,0,0,0,2.646-.576.455.455,0,1,1,.721.556A2.875,2.875,0,0,1,611.9,520.957Z" transform="translate(-580.717 -493.576)"/>
      <path id="Path_76" data-name="Path 76" d="M875.427,1534.679a3.606,3.606,0,0,1-2.252-1.281.457.457,0,0,1,.651-.643c.95.958,1.58,1.066,1.688,1,.071-.046.236-.481-.257-1.766a.539.539,0,0,1-.021-.079,5.508,5.508,0,0,0-.817-1.082c-.846-.983-1.8-2.094-1.659-3.126a.456.456,0,0,1,.9.124c-.087.622.8,1.655,1.447,2.405a4.284,4.284,0,0,1,1.012,1.464c.386,1.016.676,2.322-.112,2.828A1.045,1.045,0,0,1,875.427,1534.679Z" transform="translate(-837.049 -1464.837)"/>
      <path id="Path_77" data-name="Path 77" d="M593.464,1445.562a.646.646,0,0,1-.506-.216c-.423-.485-.041-1.314.95-3.317a29.558,29.558,0,0,0,1.58-3.583c.4-1.211.44-2.044.12-2.476a.457.457,0,0,1,.734-.543c1.111,1.493-.4,4.549-1.613,7-.129.261-.274.547-.411.833a2.108,2.108,0,0,1,.589-.556.457.457,0,1,1,.489.771,2.023,2.023,0,0,0-.663.891,3,3,0,0,1-.73,1.037.445.445,0,0,1-.145.079A1.3,1.3,0,0,1,593.464,1445.562Z" transform="translate(-568.7 -1376.594)"/>
      <path id="Path_78" data-name="Path 78" d="M918.663,536.1a.457.457,0,0,1-.456-.423.462.462,0,0,1,.348-.477,2.988,2.988,0,0,0,.369-1.028c.158-.639.311-1.464.485-2.422.1-.572.224-1.215.352-1.87a.447.447,0,0,1,.008-.245c.8-2.471.838-4.225.12-5.366-1.024-1.617-3.607-1.953-6.344-2.31-.742-.1-1.5-.195-2.256-.323a46.6,46.6,0,0,0,3.346,10.043,7.543,7.543,0,0,1,1.053,3.782.455.455,0,0,1-.908-.07,6.894,6.894,0,0,0-.979-3.33,48.03,48.03,0,0,1-3.458-10.466,1.535,1.535,0,0,1-.083-.365c0-.025,0-.046-.008-.058h0v0a.455.455,0,0,1,.5-.547h.012c.008,0,.017,0,.025,0,.945.182,1.928.311,2.878.435,2.952.386,5.743.75,7,2.728.842,1.331.867,3.247.066,5.851a.509.509,0,0,1-.008.112c-.153.755-.286,1.476-.415,2.169-.5,2.745-.755,4.126-1.613,4.184A.08.08,0,0,0,918.663,536.1Z" transform="translate(-872.992 -499.897)"/>
      <path id="Path_79" data-name="Path 79" d="M443.54,1654.158a2.5,2.5,0,0,1-.406-.029.456.456,0,0,1,.145-.9,7,7,0,0,0,1.833-.187c1.422-.249,3.2-.56,4.586.091a.455.455,0,0,1-.386.825c-1.132-.527-2.745-.245-4.043-.021A10.755,10.755,0,0,1,443.54,1654.158Z" transform="translate(-424.883 -1585.079)"/>
      <path id="Path_80" data-name="Path 80" d="M935.092,1683.954h-.013a49.32,49.32,0,0,1-7.153-.7.456.456,0,1,1,.153-.9,48.561,48.561,0,0,0,7.016.688.452.452,0,0,1,.444.469A.445.445,0,0,1,935.092,1683.954Z" transform="translate(-889.578 -1613.452)"/>
    </g>
    <g id="Group_96" data-name="Group 96" transform="translate(201.72 2564.292)">
      <path id="Path_81" data-name="Path 81" d="M349.709,559.637l-1.982.688a17.552,17.552,0,0,0-4.992-1.368l-1.941,1c-1.518,2.741-1.916,2.335-4.2,3.122l-2.032-1.381a14.709,14.709,0,0,0-3.637.311,6.446,6.446,0,0,1-2.285-1.733l-1.754-.149a23.244,23.244,0,0,0,.39-4.08c-.647-5.482-.224-7.692-.382-9.458-1.173-4.644.377-8.335-6.261-6.7a4.711,4.711,0,0,0-1.24.539c-.278.232-.224.145-.261.062-.1-1.232.9-6.85,1.567-7.849,1.343-2.629,2.057-2.766,4.516-4.167,3.367-1.862,4.856-2.612,6.228-3.371.2,3.645,4.69,7.427,8.082,5.3a26.9,26.9,0,0,0,2.177,10.756,12.617,12.617,0,0,0,1.617,4.184l1.684.767c2.5-.377,3.923-2.413,5.15-4.2l.12.34-1.111,7.472c.075-.473.066-.253.079-.037l.224,8.252Z" transform="translate(-319.1 -525.071)"/>
      <path id="Path_82" data-name="Path 82" d="M336.119,562.429l-.008,0-2.028-1.377a14.868,14.868,0,0,0-3.624.311h-.008l0,0a5.489,5.489,0,0,1-1.97-1.41c-.108-.116-.211-.224-.315-.319l-1.771-.149,0-.021c.012-.079.025-.174.037-.278a22.5,22.5,0,0,0,.361-3.782l-.008,0v-.008a48.328,48.328,0,0,1-.357-7.431,18.639,18.639,0,0,0-.025-2.028,24.158,24.158,0,0,1-.506-2.965c-.211-1.688-.377-3.023-1.327-3.674-.825-.568-2.223-.581-4.4-.046l0-.012a6.247,6.247,0,0,0-1.232.547c-.17.141-.211.162-.245.153s-.029-.033-.037-.058-.008-.029-.012-.041v0c-.1-1.194.875-6.829,1.572-7.862a6.9,6.9,0,0,1,3.7-3.715c.245-.137.522-.29.821-.46,2.048-1.132,3.384-1.845,4.458-2.418.688-.369,1.236-.659,1.771-.954l.029-.017v.033a6.036,6.036,0,0,0,1.136,3.068,7.176,7.176,0,0,0,2.521,2.239,4.3,4.3,0,0,0,4.391-.021l.033-.021v.037a26.883,26.883,0,0,0,2.177,10.748v0a12.625,12.625,0,0,0,1.613,4.171l1.671.763c2.513-.382,3.964-2.492,5.129-4.192l.025-.033.133.382v0l-1.07,7.169c.021,0,.025.037.029.17,0,.029,0,.062,0,.1l.224,8.256.249,1.717-2.007.7-.008,0a15.527,15.527,0,0,0-4.209-1.232c-.261-.042-.51-.083-.771-.133l-1.928,1c-1.236,2.231-1.75,2.38-3.114,2.782-.315.091-.672.2-1.1.344Zm-2.65-1.439c.2,0,.411,0,.622.017h0l0,0,2.024,1.373c.423-.145.775-.249,1.091-.34,1.356-.4,1.862-.543,3.093-2.766l0,0,0,0,1.949-1h.008c.265.054.514.091.78.133a15.526,15.526,0,0,1,4.209,1.232l1.957-.68-.245-1.684-.224-8.256c0-.033,0-.066,0-.1v-.046c-.008.042-.017.1-.029.182l-.042-.008h0l1.111-7.468-.1-.294c-1.165,1.7-2.621,3.8-5.138,4.176h0l0,0-1.688-.771,0,0a12.822,12.822,0,0,1-1.621-4.188,26.825,26.825,0,0,1-2.177-10.723,4.334,4.334,0,0,1-4.4,0,7.209,7.209,0,0,1-2.534-2.252,6.013,6.013,0,0,1-1.14-3.056c-.527.29-1.066.581-1.746.941-1.074.572-2.405,1.285-4.453,2.413-.3.17-.576.323-.821.46a6.859,6.859,0,0,0-3.686,3.7c-.692,1.028-1.663,6.639-1.567,7.837a.253.253,0,0,1,.012.046c0,.012,0,.025.008.029s.083-.046.2-.145a5.547,5.547,0,0,1,1.356-.576l.012.008h0c2.123-.51,3.5-.485,4.321.079.962.663,1.132,2,1.343,3.7a24.153,24.153,0,0,0,.506,2.965,18.838,18.838,0,0,1,.025,2.036,48.159,48.159,0,0,0,.357,7.418,17.605,17.605,0,0,1-.352,3.815c-.012.1-.025.182-.037.257l1.742.145,0,0c.108.1.211.211.323.328a5.4,5.4,0,0,0,1.949,1.4A14.484,14.484,0,0,1,333.469,560.99Z" transform="translate(-318.63 -524.4)"/>
    </g>
    <g id="Group_97" data-name="Group 97" transform="translate(201.862 2578.958)">
      <path id="Path_83" data-name="Path 83" d="M323.854,878.8c.522,1.53-.605,2.293-1.3.755C322.465,879.488,323.4,878.987,323.854,878.8Z" transform="translate(-322.53 -878.771)"/>
      <path id="Path_84" data-name="Path 84" d="M322.954,879.746c-.365,0-.692-.431-.883-.85a.026.026,0,0,1-.008-.029,4.674,4.674,0,0,1,1.319-.759l.021-.008.008.021a2,2,0,0,1,.1,1.053.7.7,0,0,1-.386.539A.432.432,0,0,1,322.954,879.746Zm-.85-.875h0l0,.008c.211.469.6.958,1,.8.332-.129.535-.7.261-1.518A5.1,5.1,0,0,0,322.1,878.871Z" transform="translate(-322.061 -878.1)"/>
    </g>
    <g id="Group_98" data-name="Group 98" transform="translate(226.838 2564.579)">
      <path id="Path_85" data-name="Path 85" d="M932.1,546.475c1.418.249,1.14-1.352,1.6-2.488.286-1.493.817-3.873,1.186-5.561.721-4.437-2.268-5.386-5.656-5.818-3.9-.568-4.47-1.115-4.184-.029a40.4,40.4,0,0,0,1.941,6.626c.224,2.14,2.7-.394,4,2.015a2.307,2.307,0,0,0,.547.966C933.994,544.1,932.206,545.352,932.1,546.475Z" transform="translate(-924.958 -531.93)"/>
      <path id="Path_86" data-name="Path 86" d="M931.81,545.913a1.72,1.72,0,0,1-.278-.025l-.021,0v-.021a2.965,2.965,0,0,1,.323-.929c.427-.908.916-1.941-.883-3.342a2.278,2.278,0,0,1-.556-.979,2.144,2.144,0,0,0-2.475-1.086c-.759.062-1.414.116-1.526-.929a40.534,40.534,0,0,1-1.941-6.626c-.07-.27-.1-.46,0-.564.153-.162.589-.079,1.547.108.634.124,1.5.29,2.662.46a13.522,13.522,0,0,1,2.927.634,4.411,4.411,0,0,1,2.123,1.456,4.761,4.761,0,0,1,.626,3.753l-.145.659c-.352,1.6-.792,3.6-1.041,4.9a6.192,6.192,0,0,0-.27,1.033C932.735,545.183,932.594,545.913,931.81,545.913Zm-.253-.062c.974.162,1.12-.581,1.285-1.439a5.444,5.444,0,0,1,.27-1.037c.249-1.3.688-3.3,1.041-4.9l.145-.655a4.717,4.717,0,0,0-.618-3.719c-1.045-1.4-3.122-1.833-5.022-2.073-1.161-.17-2.028-.336-2.662-.46-.912-.178-1.373-.265-1.509-.12-.083.087-.054.274.012.523a39.558,39.558,0,0,0,1.941,6.622v0c.1,1.008.713.958,1.48.9a2.208,2.208,0,0,1,2.517,1.111,2.25,2.25,0,0,0,.543.958c1.824,1.422,1.331,2.471.9,3.392A3.117,3.117,0,0,0,931.557,545.851Z" transform="translate(-924.392 -531.322)"/>
    </g>
    <g id="Group_99" data-name="Group 99" transform="translate(196.234 2601.037)">
      <path id="Path_87" data-name="Path 87" d="M191.578,1411.8a10.693,10.693,0,0,0-2.459,4.014h0c.017,2.173-.075,1.244-.721,2.952-.954,3.214-1.654,3.085-1.381,3.769,2.6,3.525,13.041-1.907,16.989-.576.328.158.7.253.962-.1.249-.4,1.074-1.779.879-1.651-.7.137-1.978,1.3-.916-.112,5.138-10.114.61-6.813-1.132-7.655a19.015,19.015,0,0,0-10.084-.73C193.225,1411.837,192.383,1411.356,191.578,1411.8Z" transform="translate(-186.931 -1411.296)"/>
      <path id="Path_88" data-name="Path 88" d="M189.656,1423.016a3.806,3.806,0,0,1-3.259-1.219l0,0c-.129-.323-.046-.469.174-.854a12.249,12.249,0,0,0,1.207-2.928,7.366,7.366,0,0,1,.477-1.041c.22-.394.253-.456.245-1.9v-.008c.07-.158.145-.332.228-.514a9.181,9.181,0,0,1,2.239-3.508l0,0a2.208,2.208,0,0,1,1.468-.124,1.822,1.822,0,0,0,.672.033,18.891,18.891,0,0,1,10.1.73,3.262,3.262,0,0,0,1.53.133c.759-.042,1.476-.083,1.812.427.344.527.489,1.837-2.2,7.124-.394.522-.419.639-.4.659s.265-.1.456-.2a3.4,3.4,0,0,1,.833-.373q.031-.019.05,0c.021.021.05.05-.34.734-.216.382-.46.784-.56.945-.141.182-.394.39-.991.1-1.667-.56-4.462.079-7.422.759A30.741,30.741,0,0,1,189.656,1423.016Zm-3.222-1.24c1.489,2.015,5.577,1.078,9.529.17,2.965-.68,5.768-1.323,7.447-.759.3.141.672.261.941-.091a14.524,14.524,0,0,0,.9-1.617h0a3.564,3.564,0,0,0-.825.369c-.307.17-.456.249-.506.191s.008-.191.4-.709c2.675-5.266,2.538-6.564,2.2-7.082-.319-.49-1.024-.448-1.775-.406a3.3,3.3,0,0,1-1.551-.137,18.882,18.882,0,0,0-10.072-.73,1.737,1.737,0,0,1-.688-.033,2.135,2.135,0,0,0-1.439.116,9.157,9.157,0,0,0-2.227,3.491c-.079.182-.153.357-.224.51.008,1.455-.029,1.526-.249,1.92a6.877,6.877,0,0,0-.477,1.032,12.371,12.371,0,0,1-1.207,2.936C186.393,1421.333,186.314,1421.473,186.434,1421.776Z" transform="translate(-186.332 -1410.554)" />
    </g>
    <g id="Group_100" data-name="Group 100" transform="translate(225.135 2600.881)">
      <path id="Path_89" data-name="Path 89" d="M883.9,1412.8c.431,1.692,1.356,2.09,2.434,3.7,1.028,2.973.182,2.206-1.779,1.642-.166-.046-.232-.058-.2.071,1.107,1.427,3.222.962,3.653,1.277.568.286,5.121.381,6.361.539,3.176.531,8.376,1.8,11.934-.108,2.235-1.6,1.36-2.807,1.816-5.42.037-4.441-3.33-4.287-5.428-5.5a8.946,8.946,0,0,0-6.361-1.609C891.944,1407.372,888.1,1410.495,883.9,1412.8Z" transform="translate(-883.875 -1407.351)"/>
      <path id="Path_90" data-name="Path 90" d="M900.931,1420.411a34.217,34.217,0,0,1-5.979-.7c-.415-.075-.8-.145-1.169-.207-.46-.058-1.4-.108-2.393-.162a23.057,23.057,0,0,1-3.972-.377,1.939,1.939,0,0,0-.813-.145,3.677,3.677,0,0,1-2.845-1.136l0-.008c-.008-.037-.017-.087.008-.112s.1-.016.216.017c.307.087.589.182.838.266.63.211,1.086.361,1.265.178.195-.195.091-.792-.344-2.057a13.727,13.727,0,0,0-1.078-1.377,5.13,5.13,0,0,1-1.356-2.33l0-.017.012-.008c.962-.527,1.916-1.107,2.836-1.663,3.176-1.924,6.183-3.745,9.541-3.745h.062c.149,0,.29-.008.427-.008,2.057-.054,3.085-.079,5.942,1.621a10.94,10.94,0,0,0,1.65.713c1.878.692,3.819,1.406,3.79,4.806a12.83,12.83,0,0,0-.17,1.986,3.51,3.51,0,0,1-1.654,3.45A10.134,10.134,0,0,1,900.931,1420.411Zm-17.134-2.758a3.664,3.664,0,0,0,2.811,1.115,1.937,1.937,0,0,1,.829.153,23.672,23.672,0,0,0,3.952.373c1,.054,1.932.1,2.4.166.365.062.759.133,1.169.207,3.209.581,7.609,1.373,10.752-.311a3.474,3.474,0,0,0,1.634-3.417,13.386,13.386,0,0,1,.17-1.99c.029-3.367-1.9-4.076-3.765-4.764a11.157,11.157,0,0,1-1.654-.713c-2.844-1.692-3.873-1.667-5.921-1.617-.137,0-.282.008-.431.008h-.062c-3.35,0-6.348,1.816-9.521,3.736-.916.556-1.866,1.132-2.824,1.659a5.1,5.1,0,0,0,1.344,2.3,13.8,13.8,0,0,1,1.086,1.381l0,0c.452,1.3.543,1.891.336,2.1s-.639.054-1.306-.17c-.249-.083-.527-.174-.833-.265-.07-.021-.153-.046-.174-.025A.366.366,0,0,0,883.8,1417.653Z" transform="translate(-883.3 -1406.797)" />
    </g>
    <g id="Group_101" data-name="Group 101" transform="translate(214.95 2543.831)">
      <path id="Path_91" data-name="Path 91" d="M641.385,35.938a1.67,1.67,0,0,0-.871,1.887c.8,1.816-.639,3.288-1.244,4.246-.037.241-.829-1.252-.97-1.53.212-3.931.361-3.056,1.244-5.6.24-.551.087-1.261.369-1.721,1.028-1.244,3.454-1.642,3.7-1.7,2.857-.543,7.057.3,6.539,3.91a7.808,7.808,0,0,1,.062,6.481A21.924,21.924,0,0,0,650,38.687c0-.663-.1-2.09-.564-2.33-.709-.431-1.7.17-2.592.054-2.546-.39-2.339-1.281-4.806-.348A.871.871,0,0,0,641.385,35.938Z" transform="translate(-638.275 -31.351)"/>
      <path id="Path_92" data-name="Path 92" d="M638.679,41.73c-.166,0-.966-1.555-.974-1.567l0,0v0c.158-2.894.278-3.189.684-4.155.145-.348.328-.78.56-1.451a2.681,2.681,0,0,0,.162-.833,2.076,2.076,0,0,1,.207-.892,6.3,6.3,0,0,1,3.6-1.684l.116-.025a8.85,8.85,0,0,1,3.064-.033,4.994,4.994,0,0,1,2.633,1.182,3.045,3.045,0,0,1,.867,2.782,7.814,7.814,0,0,1,.062,6.489l-.029.079-.008-.087c-.012-.129-.017-.4-.025-.734a12.84,12.84,0,0,0-.191-2.484v0c0-.34-.046-2.053-.556-2.314a2.011,2.011,0,0,0-1.443-.046,3.557,3.557,0,0,1-1.14.1,9.488,9.488,0,0,1-1.891-.493,3.3,3.3,0,0,0-2.907.141l-.008,0-.008,0a.862.862,0,0,0-.639-.116,1.659,1.659,0,0,0-.858,1.862c.676,1.534-.236,2.824-.9,3.765-.124.178-.245.344-.34.493a.029.029,0,0,1-.029.033Zm-.933-1.584a8.49,8.49,0,0,0,.929,1.543V41.68l0-.008c.1-.153.216-.323.344-.5.663-.933,1.567-2.21.9-3.724a1.709,1.709,0,0,1,.883-1.916h0a.914.914,0,0,1,.659.116,3.324,3.324,0,0,1,2.927-.137,9.147,9.147,0,0,0,1.883.489,3.739,3.739,0,0,0,1.128-.1,2.069,2.069,0,0,1,1.472.05c.514.265.572,1.858.576,2.343a12.984,12.984,0,0,1,.191,2.492c0,.27.008.493.017.639a7.758,7.758,0,0,0-.1-6.377v-.008a3,3,0,0,0-.854-2.749,4.946,4.946,0,0,0-2.612-1.169,8.856,8.856,0,0,0-3.048.033l-.116.025a6.244,6.244,0,0,0-3.574,1.667,2.04,2.04,0,0,0-.2.871,2.647,2.647,0,0,1-.166.846c-.232.672-.415,1.107-.56,1.451C638.023,36.974,637.9,37.264,637.746,40.146Z" transform="translate(-637.7 -30.964)" />
    </g>
  </g>
</svg>
