<svg xmlns="http://www.w3.org/2000/svg" width="22" height="22" viewBox="0 0 22 22">
  <g id="Group_6" data-name="Group 6" transform="translate(-1804 -38)">
    <path id="Path_1" data-name="Path 1" d="M0,128.33a10.961,10.961,0,0,0,.685,3.83H21.315a11.044,11.044,0,0,0,0-7.66H.685A10.961,10.961,0,0,0,0,128.33Z" transform="translate(1804 -79.33)" fill="#35499b"/>
    <path id="Path_2" data-name="Path 2" d="M22.215,0A11,11,0,0,0,11.9,7.17H32.529A11,11,0,0,0,22.215,0Z" transform="translate(1792.785 38)" fill="#fff"/>
    <path id="Path_3" data-name="Path 3" d="M22.215,264.67a11,11,0,0,0,10.315-7.17H11.9A11,11,0,0,0,22.215,264.67Z" transform="translate(1792.785 -204.67)" fill="#ed2424"/>
  </g>
</svg>
